<svg id="Layer_1" data-name="Layer 1" xmlns="http://www.w3.org/2000/svg" xmlns:xlink="http://www.w3.org/1999/xlink" viewBox="0 0 1920 1080"><defs><style>.cls-1{fill:none;}.cls-2{clip-path:url(#clip-path);}.cls-3{fill:#fff800;}</style><clipPath id="clip-path"><rect class="cls-1" width="1920" height="1080"/></clipPath></defs><g class="cls-2"><path class="cls-3" d="M-457.72,369.57c78-46.3,172.94-45.56,260.81-43.15,98.54,2.7,196.71,13.46,294,29.09,191.45,30.78,379.21,80.05,567.69,124.84,191.61,45.54,384.81,83.13,579.27,114.33,192.51,30.88,385.86,56.24,579.35,80.11,98,12.08,195.9,24.74,294,35.24,95.15,10.18,191.65,16.35,286.85,3.46,22.2-3,44.19-7.15,66-12.29,1.88-.45,1.08-3.34-.8-2.9-96.18,22.71-195.37,22.44-293.34,14.36s-195.49-21.65-293-33.54c-198-24.16-395.92-49.44-593-80.18-195.75-30.52-390.56-66.76-583.51-111.81-188.74-44.08-376.26-94.21-567.33-127.57-93.66-16.35-188.13-28.63-283.1-33.93-85.82-4.78-179-10.35-261.91,17A270.08,270.08,0,0,0-459.23,367a1.5,1.5,0,0,0,1.51,2.59Z"/><path class="cls-3" d="M-428.14,549.1c379-8.25,758.16-16.48,1137.3-12.78,378.66,3.7,757.5,19.34,1134.24,58.8,209.63,22,419.09,54.54,630.45,50.6,1.93,0,1.93-3,0-3-188.38,3.51-375.33-22.2-562.09-43.18-188.13-21.13-376.9-36.24-565.91-46.65-378.41-20.83-757.58-23-1136.44-18.55-212.54,2.52-425,7.13-637.55,11.76-1.93,0-1.94,3,0,3Z"/><path class="cls-3" d="M2400.77,296.88q-292.82-20-586.57-17.78-293.49,2.34-586.23,27.06Q938.26,330.64,651,377c-96.83,15.64-193.39,33.22-289,55-95.17,21.65-189.34,47.38-283.16,74.19-189.48,54.15-378.56,109.76-567.81,164.71l-70.42,20.45a1.5,1.5,0,0,0,.8,2.89Q-275.78,612.09,7.12,530c187.48-54.36,375.34-103.67,567.8-137.18q290-50.5,583.59-77.42,290.76-27.24,583.05-32.33,293.45-5.1,586.72,12.22,36.25,2.14,72.49,4.64c1.93.13,1.92-2.87,0-3Z"/><path class="cls-3" d="M2382.24,497q-284.05-26.82-569.76-27.43-283.92-.49-567.09,25.09-281.57,25.45-560,76.61C498.2,605.69,313.78,652.46,127.51,691.13s-376,68-566.7,59.72q-34.68-1.51-69.25-4.71c-1.92-.18-1.91,2.83,0,3,186.68,17,373.81-4.55,557.27-39.3,186-35.23,369.25-83.15,554.91-119.93Q886.16,534,1173,504.63q283.85-29,569.55-31.78,285.3-2.75,570,20.95,34.85,2.9,69.65,6.2c1.92.19,1.91-2.82,0-3Z"/><path class="cls-3" d="M2351.66,855.55q-302.23-52.39-603.34-111Q1447.18,686.07,1147,622.66,848.33,559.78,550.4,493.31C354.12,449.67,158.53,399.8-42.11,380.94-242.4,362.1-444.61,364.2-643.7,332.89q-36.51-5.75-72.76-13.07c-1.88-.38-2.69,2.51-.8,2.89,194.13,39.13,392.65,40.56,589.51,54.29,102.2,7.13,203.66,18.86,304.35,37.94,100.16,19,199.42,42.51,298.89,64.74Q773.39,546.27,1072,609.85,1372,673.54,1673,732.86,1974,792,2276.07,845.38q37.39,6.58,74.8,13.07c1.89.32,2.7-2.57.79-2.9Z"/></g></svg>