<svg xmlns="http://www.w3.org/2000/svg" viewBox="0 0 389.59 522.97"><defs><style>.a{fill:#fff;fill-rule:evenodd;}</style></defs><path class="a" d="M282.82,418.91H535.3c-39.68,104.83-212.81,104.35-252.48,0ZM603.7,220.17v6.18l-18.51,8.81L603.7,244v97l-18.48,8.82c1.13,1,8.59,4.05,10.72,5.1,1.67.85,3.74,1.79,5.44,2.49s2.15.83,2.32,1.56c6.44,262.58-394.25,263.3-389.28.91.23-.93,4.2-2.32,5-2.72,3.09-1.53,14-6.32,15.22-7.4l-20.18-9.55.06-95.67L234.63,235l-20.21-9.5C204.72,14.09,505.79-37.1,589.64,143.55c10.52,24.1,14.39,50.71,14.06,76.62ZM223.07,364.91c6.83-3.46,14.08-6.64,21-10,1.39-.66,3.83,1,5.22,1.7,3.09,1.59,14.45,6.26,15.76,7.54-4.45,189,292.3,188.63,288.22.48,2.41-.57,7.71-3.6,10.41-4.73,13.57-5.84,8.81-6.41,15.59-3.29,5,2.29,11.08,4.93,15.76,7.28,7.82,232.29-366.22,257.35-372,1Zm-.26-115.2c6.59-2.3,14.73-7.26,21.37-9.84,1.39-.54,8.51,3.52,10.35,4.28,3.32,1.36,7.54,3.46,10.77,5.07v86.4c-3.4,1.73-7,3.26-10.4,5-1.79.9-9.3,5-10.72,4.42-4.62-1.82-18.76-9.24-21.37-9.87Zm330,.25c6.92-3.51,14.29-6.55,21.29-10,1.5-.73,3.83.88,5.27,1.62,3.77,1.9,14,6.26,15.93,7.59v86.66c-2.24.51-8,3.66-10.57,4.79-1.62.74-3.6,1.67-5.19,2.47s-3.8,2.41-5.47,1.73c-7-3.26-14.34-6.5-21.26-9.95ZM255,235.16l18.77-8.84C261,49.54,555.48,48,544.66,225.47L564.81,235l-20.21,9.53.06,95.64,20.15,9.55-20.15,9.64a191.79,191.79,0,0,1-.71,22.56c-.17,3-2.27,18.26-3.37,19.93.56-4.45-1.42-3.37-4.82-3.32q-128.92-.19-258-.05v3.85c-1.45-2.27-3-16.64-3.46-20.29-1-7.23-.63-15.88-.63-23.39l-18.54-9L273.41,341l.06-97.09Zm10.07-14.25-15.76,7.31c-1.56.65-3.66,2.32-5.25,1.7l-21-10c-2.87-237.52,376-235.57,372,1l-19.65,9.18c-1.36.34-5.21-2.13-6.72-2.72-4.36-1.81-8.81-4.48-13.2-6.27-2-.79-2.24-.53-2.22-2.57l-.45-14.18C539.81,36.2,256.9,47.86,265.08,220.91Z" transform="translate(-214.19 -33.3)"/><path class="a" d="M410,327.72V309.94c5.42-3.65,7.2-4.84,13.92-5.52s12.27.34,18.74.48c3,.08,3.54,2.29,5.07,4.76,1.28,2,2.61,4,3.86,6,2.18,3.51,5.92,8.53,7.62,12.05-12.36,0-25.93-6.3-38.49-3.94-5.73,1-8.71,3.45-10.72,3.94Zm-50.85,0c.37-1.39,9.32-14.77,11.31-18,1.53-2.46,2-4.76,5-4.84,6.29-.14,12-1.22,18.54-.51,4,.42,11.5,2.18,14,5.64l.08,17.69c-1.59-.37-4.42-2.64-10.46-3.94-11.11-2.39-28.17,3.94-38.49,3.94Zm14.62-63.36V303c-1.47.93-.51-1.28-2.91,2.58-2.16,3.41-4.25,6.93-6.55,10.29l-8.76,13.77h107c-.31-1.1-13.29-21-16.21-25.57-1.08-1.72-.51-.25-1.79-1.07,0-11.6,0-23.22,0-34.81,0-4.42.54-3.57-3.48-5.19-8-3.47-22.68-9.53-30.5-12.92-2.13-1-3.94.39-6.1,1.33-8,3.22-22.82,10-30.73,13Z" transform="translate(-214.19 -33.3)"/><path class="a" d="M529.07,394.44l.22-15.36H289.06V387c0,1.42-.48,6.69.62,7.28C290.45,394.7,525.84,394.44,529.07,394.44Z" transform="translate(-214.19 -33.3)"/><path class="a" d="M299.38,373.07H519c0-1.84.28-11.34-.32-11.93-1-.63-5.81-.32-7.37-.32H299.38Z" transform="translate(-214.19 -33.3)"/><polygon class="a" points="94.08 323.44 292.08 323.44 295.68 323.44 295.68 312.89 295.81 312.7 107.75 312.89 94.08 312.89 94.08 323.44"/><path class="a" d="M381.21,243.24l-7.4,3.15,0,12c8.67-3.46,27.31-11.8,35.32-14.79,2.39-.06,29.77,13.35,35.49,14.79l0-11.85-7.66-3.28c0-6.38-.08-12.82,0-19.2,0-2.43.2-1.81-1.39-3.4-.71-.71-1.87-1.92-2-2.83V188.51c0-2.72.34-6.75-.31-9.27-.51-1.85-1.34-6.47-2-7.85l-1.87,7.2c-.82,3.28-.62,5.13-.62,8.47v27.13c0,4.62.79,3.71-2.35,6.77-1.73,1.68-1,5.76-1,8.11v9.13c-2.64-.23-14.46-6.69-16.28-6.66-.51,0-14.85,6.15-16.35,6.88V229.3c0-2.33.85-6.58-.91-8.22-2.92-2.75-2.46-2.72-2.46-6.64V187.06c0-3.12.25-5.53-.51-8.59-.4-1.53-1.31-6.18-1.88-7.23-.53,2.5-1.24,5.22-1.87,7.71-1.33,9.16-.28,28.69-.51,38.38,0,3.38-3.43,2.39-3.4,6.44,0,6.49,0,13,0,19.47Z" transform="translate(-214.19 -33.3)"/><polygon class="a" points="103.18 307.59 276.72 307.59 286.78 307.59 286.78 298.24 103.18 298.24 103.18 307.59"/><path class="a" d="M384.58,74.5l4.26-.43c2,2,1.16,3.77-2.58,3.57-2-.08-1.68-1.27-1.68-3.14Zm-1.19-9.33c1.88-.57,2.87-1.39,4.88-.57.42,1.08,1,3.6.23,4.68S385,70.84,384,70.5Zm45.67,5.5c-8.16,0-5.05-5.56-4.17-6.26,1.65-1.28,3.29-.49,5.05-.46Zm-22.31-2-4-4.2a4.11,4.11,0,0,1,3.72-2.32c2.32-.15,2.52.59,3.8,2Zm-5.27.39c-1.64.51-6.35,0-9,.63.29-3.06.43-8.28-3.23-9.22-4.31-1.13-7,1.14-10.2,2.75l.93,7.91c-2.61,0-3.88,1-6.43,1-.8-1.73-.31-4.71-4.25-6.81-2.58-1.39-6.64-1.33-9.44-.65,0,5,1.36,3,5.72,3.4a4.22,4.22,0,0,1,3.94,5.08c-2.07.79-8.27,1.07-9.75,2.24a7.71,7.71,0,0,0,.31,3.45,47.28,47.28,0,0,0,7.2-1.21c2.7-.54,4.23-.37,6-2.41,2.58,1.38,4.54,0,7.17-.23,0,2,0,4.45,1.7,5.5,4.65,2.89,14.43.65,10.55-6.92,2.21,0,5.13-.51,7.43-.51s5,.45,6.69-1.1c1.55,1.55,4.11.62,6.26.65,9,0,5.81,0,13.15,1.73,3.38.79,3.09.39,5.81-1,2.72,1.37,8.62,2.75,11.23.63,1.78-1.42,3.2-8.7,3.17-11l-3.26-.57c-3,3.35.6,9.61-5.92,8.31-1.39-.29-2.5,0-3.83-.71-.48-1.25.54-6.72.54-8.7-3.49-.83-6.12-2.78-10.15-1-3.74,1.58-4,4.76-4,8.47l-8.42-.08c1.7-2.5,3.94-3.26,1.87-6.83-2.86-5-11.11-4.17-13.55.28-2.69,4.88,1.7,5,1.7,7Z" transform="translate(-214.19 -33.3)"/><path class="a" d="M559.31,184.2l2.87-.31c0,1.5.76,3.45.34,4.7-3.35,2.69-3.75-2.27-3.21-4.39Zm6.72-1,5.27-1a8.17,8.17,0,0,1,1,3.37c.06,2-.62,1.85-2.43,2.16-3.23.56-3.83-1.73-3.83-4.57ZM554.55,149c-2.21-2-3.51-4-.2-6,3-1.81,4.71,0,5.44,3Zm-2,2.81a3.22,3.22,0,0,0,.32,3c1,1.82.14,1.08.82,2.75,1.19,2.92,1.27,2.92,3.34,4.71-.68,1.78.31,4,.77,5.61.76,2.75.82,2.29,2.44,4.28-.09,1.53-.54,2.44-.09,4.17.34,1.27.48.76.85,1.55a17.48,17.48,0,0,1,.43,2c-1.79,0-4.48.26-5.3,1.9-3,6,.93,14.46,7.22,10.35l1.28,7.34c1.76,6.72,12,3.2,21.29,3.23,0-1.45.39-3.63-1.31-3.91-1.5-.29-14.11,1.1-15.5.31-1.14-.82-.82-2.32-1-3.57l-.94-3.89c3.12.26,8.42,0,9.07-3.88.54-3.15-1.22-8-3.51-9.81l-7.49,1.19c-.25-1.05-.22-2.63-.82-3.45a3.64,3.64,0,0,1-.88-3l8.39-2.49c-.17-2.47-.62-4.09-3.37-3.32-1.42.4-5,1.79-6.26,1.33a19.31,19.31,0,0,1-2.07-6.06l8.13-3.41-1.53-3.37c-3.83.09-7.91,4.93-9.33,1.28-.56-1.42-.14-.6-.11-1.14,0-.9-.74-1.58-1-2.72l7.91-4.62c-4.15-21.17-24.8-3-11.74,3.66Z" transform="translate(-214.19 -33.3)"/><path class="a" d="M518.27,104.52l2.77-3.21a72.57,72.57,0,0,1,6.35,3.91c2,1.34,5.39,2.73,2.7,5.84-2.19,2.53-4.74.15-6.49-1.56-1.17-1.16-4.62-3.94-5.33-5ZM502.9,93.94l5.64-10c-1.53-1-1.92-1.51-3.71-1.51l-5.61,9.44c-1.56-.79-3.74-2.6-5.19-2.72A7.43,7.43,0,0,0,492.1,92c.48.66,6.1,3.8,7.26,4.51,3,1.84,4.59,3.4,8.33,3.4.66.65,1.22,1.93,2.1,2.7,3.09,2.6,4.22,3.06,8.19,7,1.93,1.9,5.81,5.7,8.28,6.57,2,.74,2.64,5.65,6.89,7.52,3,1.33,4.82-.49,6.94-2.16,1.28-1,9.73-8.7,10.32-9.61-.68-1-1.53-2.29-2.86-2.38-.82.2-7.4,6.29-8.48,7.37s-3.06,3.49-4.79,2.78a3.53,3.53,0,0,1-1.76-1.9c-.42-1.3-1-.79-1.78-2,.93-1.42,2.69-2,3.74-4.42,3.06-7.12-6.69-9.61-10.71-13.13L528.36,93c-3.06-4.62-4.59-.68-6.92,1.73-1.44,1.5-4.93,6-6.29,6.88A35.66,35.66,0,0,1,510.33,98L519,83.14c-2.84-1.44-3.09-2.69-5,.54l-6.18,10.63c-1.48,2.55-3.26,1-4.91-.37Z" transform="translate(-214.19 -33.3)"/><path class="a" d="M330.81,75.94l1.82,2.72c2-.08,4.7-2.38,6.94-2.86,2.89-.62,4.25,2.61,4.45,5l-12.3,4.48c-1.39.6-2.38,1.7-4,1.76l-4.33-7.43a6.39,6.39,0,0,0-3.09,1.9c.05,2.44,3.54,5.56,3.6,7.91a5.14,5.14,0,0,1-3.6,1.93c-1.39-1.34-2.13-3.8-3.43-5.45a4.66,4.66,0,0,0-3.06,2.33l2.77,5.21c-.9,1.65-2.24,2-4,2.47l-3.23-5.73c-1.19.68-2.29,1-3,2.13.06,2.24,2.38,3.52,2.41,6a25.65,25.65,0,0,1-5.3,3.83l-5.93-6.55a6.06,6.06,0,0,0-2.44,2.92c.6,1.44,4.29,5.27,5.56,6.69,2.13,2.44,5,4.59,2.47,7.88-1.73,2.32-5.22,4.51-8,2.72-2.52-1.64-3.37-5-5.55-7l-2.92,1.59c2.47,5.67,7.23,12.84,14.46,9.47a16.61,16.61,0,0,0,6.54-6.15c2.1-4.25.09-5.78-2-9,2.07-.48,6.8-3.17,7.48-5.5A7.35,7.35,0,0,0,317.63,98c1.67-1,1.7-2,2.69-3.31,2.19,0,2.61.22,4.71-1,1.39-.82,2.52-1.62,2.92-3.32,3.17,0,8.22-2.52,11.37-3.74,5.75-2.18,9.77-2.41,8.92-6.24-3.2-14.68-12.3-6.91-17.43-4.42Z" transform="translate(-214.19 -33.3)"/><path class="a" d="M240.58,281.88l2.9-.17c-.47,6.39-1,12.65-1.22,19.13.05,6-.48,13.86-.48,20.16h-.23c0-6.58-4.59-13-12.25-13,0,6.66,2.78,14.63,10.32,14.63a4.19,4.19,0,0,0,2.16-.48c0,2.92-.37,7.74.25,10.32,5,1.22,4.08-1.14,4.08-2.41.12-12.2-.12-40.77-2.15-51.59l-.31,2.63c-.51-1.07-.46-13.66-12.67-13.66.05,2.55.82,7.77,2.32,9.67.74.87,2.61,1.36,3.63,2.38C238.2,280.8,238.63,281.88,240.58,281.88Z" transform="translate(-214.19 -33.3)"/><path class="a" d="M250.9,206c-.59,1.68-2.52,1.93-4.19,1.56-2.41-.51-2.41-1.47-2.3-4,.09-2.27.57-1.14,4.34-1.2,1.22,0,1.73-.25,2.15,1a3.52,3.52,0,0,1,0,2.63Zm1.68-16.55c-1.9,0-3.46.34-4.74-1.25s-.45-3.2-.28-5a34.37,34.37,0,0,1,6.18,1c1.3.91-.6,4.4-1.16,5.22Zm3.11-15.59c0,2.49-.59,1.81-1.07,3-.37.94-.15,2-1,3.07l-8.24-1.19c-3.78,6.65-3.12,15.34,6.49,14.54l-.8,5-9.29-.28c-.71,5.3-3.77,12.16,4.45,13.61,7.16,1,10.64-3.92,7.68-10.27,1.13-2.58,1-1.47,1.41-4.62.26-1.73.57-3.88.94-5.58.31-1.47,1.19-3.12,1.62-4.85.82-3.4-.37-2.89-.88-5,6-11.1,2.63-12.77-8.51-15.39-.25,3-2.26,3.6,2,4.79,1.93.54,5.24.8,5.24,3.15Z" transform="translate(-214.19 -33.3)"/><path class="a" d="M269.13,141.25c-3.29-2-6.72-4.08-10-.68-2.94,3-3.11,6.32-4.62,9.53a6.7,6.7,0,0,0,3.29.68c.91-.91,2-4.71,3.18-6.44,2-2.86,4.16-.71,6.49.48-1.16,3.1-4.36,8-5.93,11.12-1.75,3,1.05.82-.88,3.43-1.07,1.5-2.49.51-3.85,0-3.34-1.18-9.08-4.36-12.33-4.88a4.94,4.94,0,0,0-1.73,3.32c2,1.39,7.4,3.15,10.09,4.31,3.26,1.44,7.63,3.8,10.49.42,2.49-2.89,1.67-4.59,1.67-4.67,0-.32,2.13-4,2.47-4.62,2.38-4.51,4.33-6.24,4.33-10.07,1.85-.9,4-4,4.71-5.84,1.25-3.23,0-4.9-2.38-7.06a140.85,140.85,0,0,0-12.42-9c-2.29,4.45-4,1.73,6.21,9.41,1.3,1,4.79,2.89,4.85,4.53,0,1.17-2.75,5.42-3.63,6Z" transform="translate(-214.19 -33.3)"/><path class="a" d="M352.84,526.65l4.59,1.33,3-10.17c1,1.56,4.36,11.62,4.9,12.3.68.91,3.2,1,4.36,1.62L374,518l3.21.45-1.56,13.72,4.65.57L381.92,519l3.86.51.31-4.11a68.13,68.13,0,0,1-8.34-.88c-2.75-.34-4.76-.11-7.34-1.28l-3,10c-.82-1-2.75-6.61-3.43-8.22a25.77,25.77,0,0,0-1.67-4.08,25.29,25.29,0,0,0-4.42-1.34Z" transform="translate(-214.19 -33.3)"/><path class="a" d="M468.07,71.18a44.39,44.39,0,0,1-1.34,5.07c-.65,1.82-3.88.83-4.48-.48A5.12,5.12,0,0,1,463.1,71c1.42-1.56,3.41-.25,5,.23Zm-1,9.41a4.37,4.37,0,0,0,2,1.65c.34.11,1.13.31,1.47.45.94.42.14.23,1.14.76,2.63,1.42,3.48.91,6,1,2.22,2.49,7.43,5.5,10.83,4.25,2.19-.85,5.16-7.57,5.79-9.84a5,5,0,0,0-3.63-1.19c-2.78,4.26-2.16,9.24-7.49,6-1.05-.65-2.09-.88-3.31-1.5l2.95-8.62a7.34,7.34,0,0,0-3.66-1c-2.67,4.08-2,9.18-5.3,7.48-1.25-.65-.17-.51-1.42-1-.4-.14-1.45-.37-1.93-.48l2.21-9.1c-2.66-2.3-11.28-6-13.94,1s1,11.6,8.3,10.12Z" transform="translate(-214.19 -33.3)"/><path class="a" d="M558.75,415.05c1.24.8,7.54,5.19,7.76,6L557,422l-1.28,4.36L572,433.85l1.28-4.37-9-4,10.46-1.41c.74-2.27.48-1.79-3.09-4.57-1-.79-4.14-2.92-4.68-3.71l9.61,1.13,1.17-4.53-18-2Z" transform="translate(-214.19 -33.3)"/><path class="a" d="M569.15,289.79l-.26,1.19c-2.41-.57-3.34-1.33-5.75.48a4.86,4.86,0,0,0-1.36,5.7c2,4.17,6.91,3.77,9-.4,2.72,1.36,4.34,1.7,7,0,.88,3.63,7,4.08,8.79-.08a5,5,0,0,0-1.16-5.42c-2-1.84-3.49-1.3-5.73-.76a5.4,5.4,0,0,0-4.79-3.86c-3.29-.17-4,1.19-5.75,3.15Z" transform="translate(-214.19 -33.3)"/><path class="a" d="M568.72,258.55c-3.88-2.49-9,2-6.91,6.18,2,4,8.05,3.46,9-.62,2.35,1.53,4.28,1.73,6.78.31,1.19,1.36,2.12,2.75,4.5,2.75a5,5,0,0,0,4.42-3,4.8,4.8,0,0,0-6.83-6.09A5.57,5.57,0,0,0,574,254c-3.52.32-3.89,2.38-5.25,4.51Z" transform="translate(-214.19 -33.3)"/><path class="a" d="M569.15,305.86l-.31,1.19c-6.64-3.4-10.21,5.81-4.74,8.42,2.72,1.3,3.32.06,5.28-.48l.73-.71.74-1.67c3.37,2.21,3.88,1.05,6.94.22a4.83,4.83,0,1,0,7.6-5.69c-1.81-1.68-3.57-1.31-5.7-.8l-.22-1c-1.68-1.19-2.1-3-5.28-2.86-2.92.14-3.54,1.64-5,3.34Z" transform="translate(-214.19 -33.3)"/><path class="a" d="M569.15,273.46l-.26,1.22c-2.29-.57-3.4-1.5-5.81.42a5,5,0,0,0-1.3,5.73c1.76,4.11,6.94,3.69,9-.4,3,.83,3.15,2.13,6.78.06,1.19,1.39,2.15,2.84,4.5,2.84a5.26,5.26,0,0,0,4.48-3c1.79-4.2-2.58-8.16-6.89-6.15a5.34,5.34,0,0,0-4.79-3.86c-3.51-.2-3.91,1.08-5.75,3.12Z" transform="translate(-214.19 -33.3)"/><path class="a" d="M254.19,449.52l2.52,3.91,8.76-5.84c-.71,1.85-2.21,6.83-2.75,8.82-1.56,5.53-1.81,3,1.39,7.85l14.57-9.89-2.44-3.89-8.7,5.73c.63-3,1.84-6,2.67-8.87,1.78-6.27,1.39-2.41-1.31-7.8Z" transform="translate(-214.19 -33.3)"/><path class="a" d="M476.48,503.8l3.94,9.9c-2.35-1.48-5.18-3.15-7.59-4.45-6.07-3.35-2.5-2.21-8.34-.83L470.9,525l4.48-1.65-4-9.89c2.47,1.53,5.13,3,7.6,4.42,5.72,3.43,2.89,2.1,8.3.82L481,502.22Z" transform="translate(-214.19 -33.3)"/><path class="a" d="M553.08,457.8c-1.34,6.83-10.41,5.36-9.59-1.42.71-6,10.78-4.76,9.59,1.42Zm-6-10.09c-3,.65-4.31,1.1-6.18,3.65-6.35,8.68,1.58,16.93,8.7,15.65,4.73-.82,9.16-6.07,8.36-11-.85-5.24-5.44-9.52-10.88-8.33Z" transform="translate(-214.19 -33.3)"/><path class="a" d="M249.23,384.1a4.87,4.87,0,1,1-9.55-1.85c1-6.12,10.85-4.56,9.55,1.85Zm-7-10.32c-12.65,3.85-7.54,21.66,4.45,19.1,5.44-1.16,8-6.4,7.06-11.62s-6.3-9-11.51-7.48Z" transform="translate(-214.19 -33.3)"/><path class="a" d="M254.76,427.3l-2.38-9.13-3.38,1,.8,3.54c-5.45,0-4.65-6.94.11-8.42a5.39,5.39,0,0,1,6,1.54c1.87,2.6.31,3.85-.91,5.69l2.81,3.91c8.39-7.42-1.13-20.66-11.28-15-6.67,3.38-5.76,13.5.54,16.64,3.26,1.53,4.82.31,7.71.23Z" transform="translate(-214.19 -33.3)"/><path class="a" d="M554.27,435.23Zm-.71-.48s.05,0,.05.06a0,0,0,0,0,0,0s-.42.22-.08-.09Zm.71.48,13.91,5.28,1.73-4.31-16.58-6.55c-.59,1.3-1,2.89-1.61,4-2.24,3.85-4,7.71-5.87,10.91l3.34,2L551,443.2l12.13,6.46,2.3-4.05-12.14-6.52,1.59-3.18Z" transform="translate(-214.19 -33.3)"/><path class="a" d="M427.3,516.11c0,2.07.85,6.18.46,6.69l-6.24.9L420.7,517l-4.68.51,2.16,17.57,4.56-.45-.71-7.29,6.49-.79.8,7.17,4.7-.51-2.15-17.58Z" transform="translate(-214.19 -33.3)"/><path class="a" d="M531.67,464.26l5.05,4.59-4.14,4.94-5.13-4.31L524.3,473l13.38,11.48,3.18-3.45-5.53-4.74,4.11-5,5.7,4.73c.71-1.07,2.64-2.74,2.83-3.77l-13.32-11.42Z" transform="translate(-214.19 -33.3)"/><path class="a" d="M565,376.42l0,2.66c2.55,0,3,.28,6.71.23,0,3.14-.31,3.45-.22,6.49H568a15,15,0,0,0-3.38-.26l-.17,4.62c6,.37,11.91.83,18,.91v-4.56l-7.23-.43.25-6.52,7.46.43.23-4.77c-4.85,0-12.65-.59-17.78-.87Z" transform="translate(-214.19 -33.3)"/><path class="a" d="M252.09,398.75c0,1.14.34,2.7-.71,3.38a2.14,2.14,0,0,1-2.83-.32c-.2-.22-1.45-2.21-.06-2.58A31.12,31.12,0,0,1,252.09,398.75Zm-14.71-2.52.63,4.68,6.4-1-5.67,5.18.85,5.67,6.18-6.32c1.19,1.36,2.07,2.81,4.2,3a6,6,0,0,0,5.07-2.13c2.44-3.09-.06-8.08-.06-11.79Z" transform="translate(-214.19 -33.3)"/><path class="a" d="M391.78,524.27l.51-4.31c1.54,0,3.35.6,3.24,2.35-.15,2.19-2.07,2-3.75,2Zm-5.58,9.18,4.34.54.85-6.32,3.43,6.75,5.58.74-4.33-7.74a5.43,5.43,0,0,0,.28-10.6,56.36,56.36,0,0,0-8.39-.94c0,3-2.3,16.16-1.76,17.57Z" transform="translate(-214.19 -33.3)"/><path class="a" d="M522.58,488.5Zm0,0,8.9,1.22c.65-.2,4.45-3.72,4.36-4.14l-11.65-1.51-.71-10.68c-1.05.31-4.28,3.29-4.22,4.51.08,2.38.71,5.49.93,8l-4.81-4.76-3.49,3L524,497l3.52-3.09Z" transform="translate(-214.19 -33.3)"/><path class="a" d="M492.58,496.18c.32,3.6,8.08,11.48,3.41,14-3.12,1.67-4.34-1.67-5.47-4s-2.27-4.74-3.46-7.12l-4.34,1.9c3.09,6.07,6.12,17.83,15,13.07,8.73-4.71,2.89-12-1.05-19.76Z" transform="translate(-214.19 -33.3)"/><path class="a" d="M444.59,513.47c.43.91,1.36,6.32,1.65,7.71.51,2.38,1.56,6.27-1.93,6.69s-3.57-3-4-5.3c-.34-1.7-1.11-6.66-1.71-7.91l-4.56,1c1.9,7.69,1.47,18.68,11.11,16.39,11.11-2.64,4.4-12.76,4.25-19.5Z" transform="translate(-214.19 -33.3)"/><path class="a" d="M256.6,438.52l-1.28-3.23.15-.23,5.27-.11Zm-8.53-3.31,3.31,0,2.19,5.76-2.41,2.18,1.78,4.62,14.29-12.56-1.93-4.81-19,0Z" transform="translate(-214.19 -33.3)"/><path class="a" d="M346.35,517.55,343,516.22l3.6-4.25Zm-12.68,2.13,4.54,1.84,2.13-2.38,5.86,2.24,0,3.37,4.76,1.79.22-19.08c-6.37-1.61-2.58-4.11-9.61,3.54-2.57,2.84-5.47,5.7-7.88,8.68Z" transform="translate(-214.19 -33.3)"/><path class="a" d="M573.17,403.06l-3.71-2c-.91-.46-.79-.23-1.05-.88l5.27-.8Zm-10.26-6.15-.79,5c1.1.91,15.65,9.27,16.64,9.35l.71-4.79-2.92-1.61,1-6.32a6.08,6.08,0,0,0,3.12-.74l.82-4.76Z" transform="translate(-214.19 -33.3)"/><path class="a" d="M292.91,486.6l-2.61-2.47,5-2.66Zm-12.73-2.81,3.58,3.29,2.92-1.19,4.64,4.19L290,493.29l3.66,3.14,7.46-17.29-3.69-3.51Z" transform="translate(-214.19 -33.3)"/><path class="a" d="M276.1,471.23l-4.05.83c0,4.22,4.22,10.17,8.9,8.81,2-.59,4.37-2.32,4.51-4.62.22-3-2.1-4.39-1.45-7.17,2.78-.68,3.09,1.45,3.6,3.6l3.83-.79c0-5.45-7.26-10.92-11.79-5.28-2.67,3.35,1,5.81.79,8.45-.23,2.84-4.34,1.39-4.34-3.83Z" transform="translate(-214.19 -33.3)"/><path class="a" d="M456.1,523.79l-1,4.31c2.52.22,3.88,1.16,7.51-.2,5.9-2.18,4.93-8.85,1.82-10.52-2.72-1.5-5.3,0-7.09-1.56-.23-2.92,3.06-2.26,4.76-1.87l.74-4.08c-3.15-.06-5.84-.74-8.5,1.62a6.13,6.13,0,0,0-.86,7.71c2.1,3.26,6.55.9,8.17,2.41,1.33,1.21-.14,2.6-1.48,2.92a6,6,0,0,1-4.08-.74Z" transform="translate(-214.19 -33.3)"/><path class="a" d="M330.36,513c-3.35,1.67-4-1.42-5.53-3.12l-3.43,2.32c2.07,4.14,7.77,7.35,11.85,4.4,1.84-1.33,3.12-4.4,2-6.52-1-1.9-4-3.69-3.86-5.44,2.13-1.9,3.63.62,4.76,1.9l3.18-2.36c-2.58-3.88-7.8-6.55-11.43-2.78-1.56,1.65-2.41,4.4-.79,6.47s3.85,2.69,3.29,5.13Z" transform="translate(-214.19 -33.3)"/><path class="a" d="M299.69,493.85,296,495.58c.4,4.2,6.52,8.73,10.63,6.64,2.1-1.08,3.8-3.4,3.26-5.93-.51-2.32-3.54-4.25-2.55-6.35,2.58-1.19,3.09,1.79,4.08,2.89l3.6-1.67c-4.19-8.47-11-6.69-12.89-2.32-1.59,3.68,2.46,5.5,2.75,7.91.22,1.9-2,2.09-3.26.85s-1.31-2.7-1.9-3.75Z" transform="translate(-214.19 -33.3)"/><path class="a" d="M244,276.38c2.12-1.81,4.33-9,4.33-12,0-3.54-2.23-10-4.33-12.22a23.63,23.63,0,0,0-4.25,12c-.17,3.66,2.07,9.73,4.25,12.22Z" transform="translate(-214.19 -33.3)"/><path class="a" d="M570.11,314.28l-.73.71c-.91,1.42-2.73,1.19-4.31,1.19.91,7,11,10,15.79,5,2.6-2.55,1.87-2.67,3.17-5.47-2.95,0-4.54.59-6.49-2.38-3.32,1.67-3.54.7-6.46,0Z" transform="translate(-214.19 -33.3)"/><path class="a" d="M246.4,322.36a9.07,9.07,0,0,0,9.38-3.46c1.76-2.27,3.46-8,2.66-10.71-6.93-.9-13,7.58-12,14.17Z" transform="translate(-214.19 -33.3)"/><path class="a" d="M244.81,281.71a8.8,8.8,0,0,0,3.2.14c2.41-.28,1.08-2,5.93-4.17,2.18-1,3.65-9.18,2.69-10.14-.6-.6-4.11.56-5.1,1-4.54,2.21-7.91,9.12-6.72,13.12Z" transform="translate(-214.19 -33.3)"/><polygon class="a" points="283.84 459.5 293.3 474.64 301.86 469.31 299.88 465.94 295.26 468.74 287.97 457.15 283.84 459.5"/><path class="a" d="M239.39,302.26l2.39-.37c.68-7.31-6.1-15.16-12.39-14.2-.26,1.9.59,8.87,2.58,9.53a11.87,11.87,0,0,1,4.31,1.92c1.07.8,2.43,2.67,3.11,3.12Z" transform="translate(-214.19 -33.3)"/><path class="a" d="M246.4,302c3.37.82,2.43-.54,4.87-2.47s2.89-1.61,5.47-2.44c1.08-2.12,2.38-7,1.7-9.29-4.16-1.25-13.15,5.24-12,14.2Z" transform="translate(-214.19 -33.3)"/><path class="a" d="M241.75,312c.71-7.06-6-15-12.36-14a20.59,20.59,0,0,0,.68,5.86c1.44,5.93,2.46,1.45,7.45,6.47,1.39,1.39,2,3.17,4.23,1.67Z" transform="translate(-214.19 -33.3)"/><path class="a" d="M246.34,312.35c3.88.34,1.59.12,4.17-2.1a11.63,11.63,0,0,1,4.13-2.55c2.67-.79,2.47-.34,3.26-3.45.4-1.51,1-4.6.54-6.16-2.63-.76-7.17,1.85-8.87,4-2.61,3.32-3.23,6-3.23,10.23Z" transform="translate(-214.19 -33.3)"/><path class="a" d="M246.4,292.14c1.64.17,1.64.85,2.8-.68a11,11,0,0,1,7.63-4.65c1.05-2,2.26-6.69,1.61-8.87-4-1.19-12.87,4.34-12,14.2Z" transform="translate(-214.19 -33.3)"/><path class="a" d="M239.62,292.42l2.18-.42c0-7.43-4.67-14.2-12.5-14.2a27.19,27.19,0,0,0,.68,5.55c.49,2.13.43,3.26,2.53,3.72,2.83.59,5.52,3,7.11,5.35Z" transform="translate(-214.19 -33.3)"/><path class="a" d="M565,207.84l.17,3.29c1.53,1.27,8,.14,10.23.17,3.58,0,7.32-.46,11-.46,0-2.52.43-4.11-2.38-4.11-1.36,0-5.07.17-6.38.37-2.89.4-11.34.37-12.67.74Z" transform="translate(-214.19 -33.3)"/><path class="a" d="M569.15,289.79c.2-2.33,3.06-4.11,5.27-4.11,4,0,4,2.78,5.53,3.88,2.78-1.42,3-3.91,4.08-6.26-3.6.34-4.22.39-6.49-2.16-2.81.68-3.52,1.48-6.46-.25a9.8,9.8,0,0,1-2.21,2.38,4.71,4.71,0,0,1-3.8.51c0,2.29,2.12,5,4.08,6Z" transform="translate(-214.19 -33.3)"/><path class="a" d="M281.43,130.62l2-3c-1.13-2-14-10.58-16.92-12.84-1.87,2.18-2.86,3.06-.11,4.93,4.65,3.14,10.2,7.54,15,10.88Z" transform="translate(-214.19 -33.3)"/><path class="a" d="M537.23,129.46a14.45,14.45,0,0,0,2.38,2.89c1.48-.34,15.56-10.74,17.26-12.22-1.78-2.57-1.75-3.68-4.62-1.55-4.42,3.23-10.94,8.22-15,10.88Z" transform="translate(-214.19 -33.3)"/><path class="a" d="M569.15,273.46c.37-4.14,7.37-6.55,10.54-.23,2.87-.7,3.38-3.91,4.34-6-3.06.06-4.51.66-6.49-2.38-2.33,1.17-4.17,1.31-6.46,0-2.3,2.55-2,3-6,2.89,0,2,2.15,5.3,4.08,5.75Z" transform="translate(-214.19 -33.3)"/><path class="a" d="M308.08,506.21l3.74,2.3,9.44-14.94a10.75,10.75,0,0,0-4.08-2.38c-1.19,1.87-9,14-9.1,15Z" transform="translate(-214.19 -33.3)"/><polygon class="a" points="188.48 497.2 188.39 500.32 188.48 501.37 192.96 501.54 193.61 487.59 193.67 483.77 191.51 483.77 189.13 483.45 188.48 497.2"/><path class="a" d="M266.1,467.21c.17,1,2.09,2.72,2.8,3.77l13.52-11.4L279.59,456Z" transform="translate(-214.19 -33.3)"/><path class="a" d="M569.15,305.86c.48-5.61,9.89-5.3,10.32-.48,2.09.82,4.31-3.8,4.31-5.76-2.61,1.22-4.85-.59-6.24-2.15-2.33.57-4.08,1.53-6.46-.25-2.19,2.46-1.82,3.14-6,3.14.11,1.39,2.69,6,4.08,5.5Z" transform="translate(-214.19 -33.3)"/><path class="a" d="M568.41,152.51,571,159l2-.71c0-2.24-1.22-2.38-.73-4.37,3.11.06.39,4.79,4.56,2.89-.42-1.78-.68-4.11-2.55-5.16-1.47-.82-1.82-.28-3,.12s-1.36-.63-2.89.71Z" transform="translate(-214.19 -33.3)"/><path class="a" d="M573.37,330.89c2.24-.06,2-1,3-2.95a23.34,23.34,0,0,0,1.93-4.08c-1.34.31-2.53.43-2.9,1.93l-.28-1.19h-1.87l-.11,1.22c-.48-1.51-1.9-1.87-3.26-2.19Z" transform="translate(-214.19 -33.3)"/><path class="a" d="M483.71,91.08c-1.07.31-2.32.94-1.84,2.75,1.13,4.42,7.28-.09,3.51-2.55-1-.63-1-.43-1.67-.2Z" transform="translate(-214.19 -33.3)"/><path class="a" d="M251.61,139.55a2.34,2.34,0,1,0,1.53,4.42c2.87-1.13,1.16-5.58-1.53-4.42Z" transform="translate(-214.19 -33.3)"/><path class="a" d="M553.56,168.1c-.74.22-.91,0-1.48,1a2.35,2.35,0,0,0,2.56,3.52,2.4,2.4,0,0,0,.68-4.34c-1-.62-1.05-.37-1.76-.14Z" transform="translate(-214.19 -33.3)"/><path class="a" d="M470.5,61.8c-3.31,1.42-1,5.27,1.48,4.36,3.06-1.1,1.36-5.58-1.48-4.36Z" transform="translate(-214.19 -33.3)"/><path class="a" d="M235.79,203.87c-3.09,1.33-.93,5.44,1.68,4.37,2.77-1.17,1.33-5.67-1.68-4.37Z" transform="translate(-214.19 -33.3)"/><path class="a" d="M465.46,60.35c-3.52,1.53-.82,5.33,1.53,4.42,3-1.19,1.16-5.58-1.53-4.42Z" transform="translate(-214.19 -33.3)"/><path class="a" d="M477,88c-1.33.37-2.29.82-2,2.52.51,3.09,5.25,2.53,4.62-.79a2.37,2.37,0,0,0-1.81-1.84c-1-.2-.29-.06-.8.11Z" transform="translate(-214.19 -33.3)"/><path class="a" d="M563.88,136.43c-1,.43-2.07,1.14-1.45,2.87a2.29,2.29,0,0,0,2.92,1.5c3-1.08,1.47-5.58-1.47-4.37Z" transform="translate(-214.19 -33.3)"/><path class="a" d="M243,162.82c-2.86,1.22-1,5.39,2,4.17,2.32-.91,1.39-5.61-2-4.17Z" transform="translate(-214.19 -33.3)"/><path class="a" d="M566.51,141c-3.46,1.47-1,5.38,1.5,4.39,3-1.13,1-5.5-1.5-4.39Z" transform="translate(-214.19 -33.3)"/><path class="a" d="M241.78,167.87c-3.52,1.45-.91,5.24,1.5,4.39,2.89-1.07,1.33-5.55-1.5-4.39Z" transform="translate(-214.19 -33.3)"/><path class="a" d="M288.83,98.51c-3,1.3-1.08,5.38,2,4.16,2.21-.88,1.25-5.55-2-4.16Z" transform="translate(-214.19 -33.3)"/><path class="a" d="M555.23,173.14c-3.57,1-2.07,4.93.68,4.57,3.26-.43,2-5.28-.68-4.57Z" transform="translate(-214.19 -33.3)"/><path class="a" d="M471.47,86.26c-3.12,1.33-.88,5.41,2,4.14,2.44-1.05,1.11-5.47-2-4.14Z" transform="translate(-214.19 -33.3)"/><path class="a" d="M439.78,77.39c-1.42.37-2.13.85-1.93,2.63.28,2.92,5.21,2.44,4.53-.9a2.13,2.13,0,0,0-2.6-1.73Z" transform="translate(-214.19 -33.3)"/><path class="a" d="M236,198.6c-3.06,1.3-.88,5.24,1.67,4.31,2.81-1,1.42-5.64-1.67-4.31Z" transform="translate(-214.19 -33.3)"/></svg>