<svg id="Layer_1" data-name="Layer 1" xmlns="http://www.w3.org/2000/svg" xmlns:xlink="http://www.w3.org/1999/xlink" viewBox="0 0 1920 1080"><defs><style>.cls-1{fill:none;}.cls-2{clip-path:url(#clip-path);}.cls-3{fill:#14042d;}.cls-4{fill:#ff00c3;}</style><clipPath id="clip-path"><rect class="cls-1" x="-6" y="-2" width="1920" height="1080"/></clipPath></defs><g class="cls-2"><rect class="cls-3" x="-42.35" y="-19" width="1995.71" height="1122"/><path class="cls-3" d="M614.31,549.1A424.45,424.45,0,0,1,772.4,507.88c6.71-.4,13.46-.75,20.18-.73,5.32,0,11,1.49,12.09,7.48.85,4.86-1.27,10.12-3.49,14.34-3.12,6-7.27,11.45-11,17q-24.6,37.2-49.22,74.39l-49.05,74.12-6.13,9.27c-.67,1,.47,2.72,1.69,2.2,30.6-12.87,56.77-33.7,81.2-55.82,7-6.34,13.9-12.82,20.79-19.3l-2.36-1.81c-11.92,17.08-23.76,35.28-29,55.68a67.94,67.94,0,0,0-1.45,29.44,60.64,60.64,0,0,0,12.3,26.18c6,7.62,13.33,14,21.08,19.79a214.62,214.62,0,0,0,26.05,16.5c18.07,9.76,37.32,17.19,56.89,23.3,19.84,6.19,40.06,11.06,60.3,15.73l7.66,1.77c1.88.43,2.68-2.46.8-2.9-19.78-4.53-39.57-9.12-59.06-14.81S844.13,787.34,826,778.4a229.37,229.37,0,0,1-26.06-14.93,140.29,140.29,0,0,1-22.78-18.29c-6.59-6.74-12.24-14.59-15.4-23.54a58.62,58.62,0,0,1-2.25-29.14c3.38-20.37,14.48-38.76,25.87-55.6,1.43-2.12,2.88-4.22,4.34-6.32,1-1.44-1.15-3-2.35-1.82-23.76,22.35-47.83,45-76,61.76a198.33,198.33,0,0,1-24.69,12.59l1.69,2.2,50.67-76.57,50.67-76.58c4.08-6.17,8.33-12.26,12.25-18.54a36.92,36.92,0,0,0,5.68-14.54c.59-4.66-.58-9.41-4.52-12.29-5-3.68-12.3-2.66-18.14-2.48a427.13,427.13,0,0,0-163,37.87q-4.65,2.12-9.25,4.33c-1.74.84-.22,3.43,1.52,2.59Z"/><path class="cls-4" d="M1.05,482.15C1.78,454.56,29.57,440.3,52.68,433c31-9.78,64.51-14.28,96.64-18.27,66.26-8.23,133.32-8.86,199.88-4.29,135.58,9.32,268.33,40.26,399.79,73.19,132,33.06,263.68,65.65,397.75,89.1a3919.85,3919.85,0,0,0,398.88,48.85,3909.39,3909.39,0,0,0,407.2,7.55q25.22-.86,50.41-2c1.92-.09,1.93-3.09,0-3a3924.35,3924.35,0,0,1-415-2.74,3913.5,3913.5,0,0,1-417.74-47.58c-136.76-23.08-271.18-55.43-405.61-89.25C632.48,451.21,499,419.19,362.56,408.42c-67.8-5.35-136.16-5.48-203.79,2.18-32.44,3.67-65,8.74-96.71,16.65-19.8,4.94-41.9,13.2-55,29.72a41.24,41.24,0,0,0-9,25.18c-.05,1.93,3,1.93,3,0Z"/><path class="cls-4" d="M-45.59,699.18C7.59,663.37,69,643.67,131.3,630.69c67.83-14.14,137-22.71,205.78-31,142-17.09,284.76-27.34,427.62-33.55,143.87-6.26,287.87-8.44,431.85-9.42,144.22-1,288.44-.77,432.65-2.23s288.22-4.57,432.14-12.23q26.43-1.41,52.85-3c1.92-.12,1.93-3.12,0-3-144.54,8.82-289.31,12.78-434.1,14.68-145.62,1.9-291.26,1.76-436.89,2.53-144.73.76-289.48,2.42-434.12,7.89C664.77,566.82,520.54,576.1,377,592.09c-68.94,7.68-137.93,16.39-206.31,28.13C110.1,630.62,49.27,644.84-6,672.52A370.56,370.56,0,0,0-47.1,696.59c-1.6,1.07-.1,3.67,1.51,2.59Z"/><path class="cls-4" d="M540.39,329.25a1.5,1.5,0,0,0,0-3,1.5,1.5,0,0,0,0,3Z"/><path class="cls-4" d="M19.69,723.24a1.5,1.5,0,0,0,0-3,1.5,1.5,0,0,0,0,3Z"/><path class="cls-4" d="M19.69,723.24a1.5,1.5,0,0,0,0-3,1.5,1.5,0,0,0,0,3Z"/><path class="cls-4" d="M17.38,723.24a1.5,1.5,0,0,0,0-3,1.5,1.5,0,0,0,0,3Z"/><path class="cls-4" d="M10.47,725.54a1.5,1.5,0,0,0,0-3,1.5,1.5,0,0,0,0,3Z"/><path class="cls-4" d="M1904.36,661a1.5,1.5,0,0,0,0-3,1.5,1.5,0,0,0,0,3Z"/><path class="cls-4" d="M10.43,597.34c121.8-43,251.16-56.47,379.74-53.7,131.64,2.83,262.3,21.58,392.24,41.53,133.9,20.56,267.84,40.4,402.31,56.89q206.73,25.35,414.35,42.56t415.71,26.27q26.38,1.14,52.79,2.16c1.93.07,1.92-2.93,0-3Q1858.43,702,1649.71,685.7t-416.57-40.82c-138.48-16.33-276.52-35.79-414.31-57.11C691,568,562.81,548.23,433.46,542.13c-126.69-6-255.14,1.7-377.43,37.34C40.42,584,25,589,9.63,594.44c-1.81.64-1,3.54.8,2.9Z"/><path class="cls-4" d="M29.2,655.74q398.92-57.65,801-89.48,398-31.44,797.42-37.33c150.58-2.21,301.28-2.13,451.75,4.79,1.93.09,1.92-2.91,0-3-269-12.37-539.31-6.11-808.25,5.56q-400.86,17.4-800.05,60.6-221.82,24-442.68,56c-1.9.27-1.09,3.17.8,2.89Z"/><path class="cls-4" d="M1873.66,732.14q-206.79-21.07-414.57-29.77t-415.62-4.8q-207.81,3.82-415.16,20.09-205.38,16.11-409.55,44.4Q12.87,790.58-191,831.46q-25.09,5-50.16,10.25c-1.89.39-1.09,3.28.8,2.89q202.5-42.12,407.25-72.14,206.48-30.23,414.53-48,206.08-17.57,413-22.85,207.78-5.29,415.64,1.85,206.7,7.14,412.73,26.63,25.49,2.4,51,5c1.92.2,1.91-2.8,0-3Z"/><path class="cls-4" d="M907.12,829.15,989.8,813l23.31-4.56c1.89-.37,1.09-3.27-.8-2.9L929.63,821.7l-23.3,4.56c-1.9.37-1.09,3.26.79,2.89Z"/><path class="cls-4" d="M1224.68,843a1.5,1.5,0,0,0,0-3,1.5,1.5,0,0,0,0,3Z"/><path class="cls-4" d="M1139.43,909.86a1.5,1.5,0,0,0,0-3,1.5,1.5,0,0,0,0,3Z"/><path class="cls-4" d="M766.18,843a1.5,1.5,0,0,0,0-3,1.5,1.5,0,0,0,0,3Z"/><path class="cls-4" d="M759,773.29c25.44-2.61,50.87-5.2,76.34-7.41,25.65-2.22,51.33-4.07,77-5.17,25.47-1.09,51-1.45,76.47-.69a741.91,741.91,0,0,1,76.08,6A573.59,573.59,0,0,1,1139.69,781c3.07.84,6.13,1.7,9.18,2.6,1.86.54,2.65-2.36.8-2.9a563.31,563.31,0,0,0-74.55-16.21,717.08,717.08,0,0,0-75.6-7c-25.7-1.08-51.44-1-77.14-.08s-51.4,2.6-77,4.72-51.21,4.66-76.78,7.28l-9.51,1c-1.9.2-1.92,3.2,0,3Z"/><path class="cls-4" d="M1229.29,852.26a1.5,1.5,0,0,0,0-3,1.5,1.5,0,0,0,0,3Z"/><path class="cls-4" d="M851.35,868.72q-50.15-3.78-100.15-9.25-49.79-5.44-99.38-12.56-27.77-4-55.46-8.51c-1.89-.3-2.7,2.59-.79,2.9q49.57,8.07,99.42,14.49t100,11.14q28.18,2.67,56.4,4.79c1.93.15,1.92-2.86,0-3Z"/><path class="cls-4" d="M611.82,803.88a1.5,1.5,0,0,0,0-3,1.5,1.5,0,0,0,0,3Z"/><path class="cls-4" d="M1582.36,518.78q-62.44-9.37-125.06-17.57-62.41-8.16-125-15.13-35.38-3.93-70.81-7.49c-1.92-.19-1.91,2.81,0,3q62.63,6.29,125.12,13.77t125.08,16.2q35,4.87,69.84,10.12c1.89.28,2.7-2.61.8-2.9Z"/><path class="cls-4" d="M852.57,432.14a160.24,160.24,0,0,0-41.75-13,256.43,256.43,0,0,0-44.1-3.4c-15.36,0-30.69,1.05-46,2.25-16.31,1.28-32.62,2.74-49,3.35s-32.58.38-48.72-1.72q-3.07-.4-6.13-.9c-1.89-.31-2.7,2.58-.8,2.89,32.32,5.22,65.09,2.55,97.52-.05,30-2.41,60.36-4.72,90.31-.49,16.24,2.3,32.27,6.55,47.11,13.63,1.74.82,3.26-1.76,1.52-2.59Z"/><path class="cls-4" d="M402.05,335.15q65.38-6.43,131.07-8.88t131.36-.86q37,.9,74,3.06c1.93.11,1.92-2.89,0-3q-65.58-3.84-131.32-3.67t-131.29,4.36q-36.94,2.35-73.79,6c-1.9.19-1.92,3.19,0,3Z"/><path class="cls-4" d="M1528.81,898.18q33.17.66,66.3-1.71,32.92-2.37,65.55-7.72,18.4-3,36.65-7c1.89-.41,1.09-3.3-.8-2.89q-32.22,7-65,11.06T1565.88,895q-18.53.57-37.07.2c-1.93,0-1.93,3,0,3Z"/><path class="cls-4" d="M1796.86,414.12q-41-7.72-82.42-12.32t-83.2-6q-23.55-.79-47.12-.59a1.5,1.5,0,0,0,0,3q41.6-.36,83.14,2.42t82.81,8.76q23.07,3.34,46,7.67c1.89.35,2.69-2.54.8-2.9Z"/><path class="cls-4" d="M242.51,575.42l50.22,28.7L307,612.29a1.5,1.5,0,0,0,1.51-2.59L258.31,581,244,572.83a1.5,1.5,0,0,0-1.51,2.59Z"/><path class="cls-4" d="M259.29,824.27a441.82,441.82,0,0,0,101.95-17.44q14-4.14,27.75-9.21c1.79-.66,1-3.57-.8-2.89A441,441,0,0,1,339,809.67a436.28,436.28,0,0,1-50.86,9.14q-14.4,1.71-28.89,2.46c-1.92.1-1.94,3.1,0,3Z"/><path class="cls-4" d="M232.05,356.85,275.83,343c1.84-.58,1.05-3.47-.8-2.89L231.26,354c-1.84.58-1,3.48.79,2.9Z"/><path class="cls-4" d="M7.76,181.12c135.34-16.5,271.82-9.27,407.5-1.6,136.4,7.71,272.81,15.41,409.06,25.42,136.86,10,273.59,22.41,409.77,39.46,136,17,270.86,40.75,405.92,63.91,131.88,22.62,264.37,43.54,398.07,51.39q25.29,1.49,50.6,2.32c1.93.06,1.92-2.94,0-3-136.32-4.6-271.49-23.95-405.85-46.47-132.57-22.22-264.71-46.71-398-64.57-136-18.24-272.65-31.52-409.46-42.18-136.21-10.62-272.61-18.64-409-26.39-135.69-7.71-272.13-17.55-407.92-6.47Q33.05,175,7.76,178.12c-1.89.23-1.92,3.23,0,3Z"/><path class="cls-4" d="M2020.49,810q-212.07-45.86-426.85-77.65Q1382,701.07,1168.55,683.61,952.3,665.93,735.2,662.53q-216.94-3.39-433.79,7.54Q84.72,681-130.93,706.31q-26.4,3.09-52.79,6.41c-1.89.24-1.91,3.24,0,3q214.23-26.87,429.91-39.63,215.52-12.71,431.58-11.21,215.9,1.5,431.39,17.15,217.26,15.78,433.15,45.94,213.82,29.89,425.36,73.87,26,5.42,52,11c1.89.4,2.69-2.49.8-2.9Z"/><path class="cls-4" d="M1000.87,368l67.4,11.95,67.4,12,37.88,6.72c1.89.33,2.7-2.56.8-2.89l-67.4-12-67.4-12-37.88-6.72c-1.89-.33-2.7,2.56-.8,2.9Z"/><path class="cls-4" d="M1653.71,229.16q-39.95-8.86-80.08-16.82t-80.45-15q-40.11-7-80.37-13.07T1332.17,173q-40.58-5.19-81.28-9.46l-10.07-1c-1.92-.2-1.9,2.81,0,3q40.5,4.14,80.9,9.18,40.6,5.07,81.08,11.08,40.28,6,80.4,12.87t80.09,14.69q40,7.8,79.73,16.51l9.89,2.18c1.88.42,2.68-2.47.8-2.89Z"/><path class="cls-4" d="M888.3,137.19q-42.72-2.61-85.51-3.84t-85.35-1.07q-24,.09-48,.61c-1.93,0-1.93,3,0,3q42.8-.93,85.6-.48t85.32,2.29q24,1,48,2.49c1.93.12,1.93-2.88,0-3Z"/><path class="cls-4" d="M381.42,108.07q49.38-2.88,98.88-2.67,13.92.06,27.84.36c1.93,0,1.93-3,0-3q-49.45-1.08-98.92.93-13.91.57-27.8,1.38c-1.92.11-1.94,3.11,0,3Z"/><path class="cls-4" d="M284.27,916.64a297,297,0,0,0,83,8.91q11.73-.4,23.39-1.75c1.9-.22,1.92-3.22,0-3A294,294,0,0,1,308,918.6q-11.56-2-22.95-4.86c-1.87-.47-2.67,2.42-.8,2.9Z"/><path class="cls-4" d="M701.66,933.07l61.14,3.33,61.14,3.32,34.43,1.88c1.93.1,1.93-2.9,0-3l-61.13-3.33-61.14-3.33-34.44-1.87c-1.93-.1-1.92,2.9,0,3Z"/><path class="cls-4" d="M1326.05,932.87l62.71-5.51,17.92-1.58c1.91-.17,1.92-3.17,0-3L1344,928.29l-17.92,1.58c-1.91.16-1.92,3.16,0,3Z"/><path class="cls-4" d="M1429.75,821.53q-45.72-5.73-91.78-8-12.87-.63-25.74-1c-1.93-.06-1.93,2.94,0,3q46.05,1.32,91.92,6.1,12.81,1.33,25.6,2.94c1.91.24,1.89-2.77,0-3Z"/><path class="cls-4" d="M1215.44,995.29l80.83,9.32,22.8,2.63c1.92.22,1.9-2.78,0-3l-80.82-9.32-22.81-2.63c-1.91-.22-1.9,2.78,0,3Z"/></g></svg>