<svg id="Layer_1" data-name="Layer 1" xmlns="http://www.w3.org/2000/svg" viewBox="0 0 1920 1080"><defs><style>.cls-1,.cls-8{fill:#14042d;}.cls-1,.cls-2,.cls-3,.cls-4,.cls-5,.cls-6{stroke:#14042d;stroke-miterlimit:10;}.cls-1,.cls-4,.cls-5,.cls-6{stroke-width:0.23px;}.cls-2,.cls-3{stroke-width:0.51px;}.cls-2,.cls-4,.cls-5{fill-rule:evenodd;}.cls-3,.cls-5,.cls-7{fill:#ff00c3;}.cls-6{fill:none;}</style></defs><rect class="cls-1" x="0.5" y="-0.5" width="1919" height="1080"/><path d="M791.77,956.63l11.32,13.2a1.51,1.51,0,0,0,2.12,0,1.53,1.53,0,0,0,0-2.12l-11.32-13.2a1.51,1.51,0,0,0-2.12,0A1.53,1.53,0,0,0,791.77,956.63Z"/><path class="cls-2" d="M1479.68,742.9,1481.45,38c.51-13.67-3.79-21-12.4-21.51H453.36a18.79,18.79,0,0,0-12.66,6.07,17.82,17.82,0,0,0-4.55,13.16V742.9Z"/><rect class="cls-3" x="449.05" y="32.95" width="1020" height="677.8"/><path class="cls-4" d="M234.68,1045.1H1683.43c-33.92-50.62-67.83-101.5-101.75-152.12-33.66-50.62-67.83-101.24-101.75-151.86H436.15C402.74,791.74,368.82,842.36,335.41,893c-33.66,50.88-67.07,101.5-100.73,152.12Z"/><path class="cls-5" d="M234.68,1045.1H1683.43c2.27,11.89-3.55,17.71-17.21,17.21H247.59a14.45,14.45,0,0,1-10.13-5.82A14.2,14.2,0,0,1,234.68,1045.1Z"/><rect class="cls-1" x="790.49" y="1045.1" width="340.93" height="17.21"/><path class="cls-5" d="M459.68,770.74h998.49l41,67.57c13.41,22.53,27.08,45.06,40.49,67.58H380.46q19.76-33.78,39.49-67.58C433.11,815.79,446.52,793.31,459.68,770.74Z"/><path class="cls-5" d="M713,912.22h493c6.58,22,13.41,44.29,20,66.57,6.84,22,13.42,44,20,66.31H674c6.58-22.27,12.91-44.29,19.49-66.31,6.58-22.28,13.16-44.55,19.49-66.57Z"/><path class="cls-6" d="M440.7,803.39c35.18,8.1,1026.83,8.35,1038.47,2"/><path class="cls-6" d="M509,779.34c-1,49.61-10.38,12.15,23.79,24,0,0,5.32,14.93-2,20.75,8.85,25.82,12.9-35.43,10.63,26.58-.26,3.79,52.13-12.15,17.21,55.17"/><path class="cls-6" d="M580.67,770.74c1.26,91.11,3-14.68,28.09,57.7,40.75,14.18-40.75-1.26,34.68,24.81,1.77,7.84-13.17,36.44-13.17,52.64"/><path class="cls-6" d="M652.29,770.74c-9.36,96.68,9.62-7.6,19.24,54.67,2.28,13.66,42.77,3,42.77,62.77,0,2.78-.25,6.58.51,9.11"/><path class="cls-6" d="M794,882.1c-17.21-89.09-37.21,20.25-37.21-59,2,6.33-42.52-25.31-42.52-30.63,0-28.85,19-10.63,9.12-21.76"/><path class="cls-6" d="M781.12,779.34c-.5,67.83,36.7-17.21,42.52,46.83,1.27,16.19,14.68-27.09,14.68,30.62,11.39,0,19.74-2.53,26.58-2.53,0,3.29.5,19-.25,21.51"/><path class="cls-6" d="M948.42,875.77c-11.39-68.08-34.17,21.52-38.22-47.83-1-16.71-17,20-20.75-21.26-3-33.16-22.27,43.78-33.66-40l-1.77,4"/><path class="cls-6" d="M1021.06,878.05c7.09-65.8-32.65,7.34-41.76-50.37-67.83-10.63,32.14-3.79-52.39-23-.76-.25-6.08-30.12-6.08-33.91"/><path class="cls-6" d="M1327.57,875.77c-31.89-54.41,23.79,4.05,23.79-51.88,8.1-3.55,106.05-25.06,8.35-18.48-.76.25-33.92-33.91-33.92-34.67"/><path class="cls-6" d="M1250.37,871.47c-20-48.09,23.29,5.57,30.12-45.05,2.53-17.21,50.11,16.45,41.51-20.5-38-9.87-22.27,27.08-57-35.18"/><path class="cls-6" d="M1175.45,871.47c-12.4-42,83.27-25.82,4.56-44-9.62-56.69,41.51,25.82,27.84-56.69"/><path class="cls-6" d="M1091.93,869.45c-8.86-56.7,47.58,6.83,36.7-45.31-88.33-34.67,42.27-.51,6.07-44.8"/><path class="cls-6" d="M1059.79,850c13.16-44.3-21.26-.51-24.55-47.84-1-14.68-41.77,23.29-40.25-31.38"/><path class="cls-6" d="M1064.09,770.74c-2,14.17.25,25.31.25,39"/><path class="cls-6" d="M715.32,905.89h414.83c-2.79-20-4.05-30.12-4.05-30.12H723.42C719.87,884.13,717.34,894.25,715.32,905.89Z"/><path class="cls-6" d="M440.7,803.39q1038.35,1.89,1038.47,2"/><path class="cls-6" d="M429.06,822.88l1063,3.79"/><path class="cls-6" d="M1506.76,851.22H412.35"/><path class="cls-6" d="M397.93,876.28H1522"/><path class="cls-7" d="M922.61,734l4.8-12.91h2L934.5,734h-1.77l-1.52-3.8H925.9l-1.52,3.8Zm3.79-5.32h4.3l-1.26-3.54a18.17,18.17,0,0,1-1-2.79c-.26,1-.51,1.78-.76,2.54Z"/><path class="cls-7" d="M936,734V721.13h5.57a5.39,5.39,0,0,1,2.53.51,1.69,1.69,0,0,1,1.52,1,3.08,3.08,0,0,1,.5,2,3.12,3.12,0,0,1-.76,2.28,4.77,4.77,0,0,1-2.78,1.27c.51.25.76.5,1,.5a10.69,10.69,0,0,1,1.52,1.77l2,3.55h-2l-1.77-2.79a11,11,0,0,0-1.27-1.77l-.76-.76a1,1,0,0,0-.75-.25c-.26,0-.51-.25-1-.25h-2V734Zm1.52-7.09h3.79c.76,0,1.27-.25,1.78-.25a3.68,3.68,0,0,0,1-.76,2.32,2.32,0,0,0,.25-1.27,3.55,3.55,0,0,0-.5-1.52,5.13,5.13,0,0,0-2.28-.5h-4Z"/><polygon class="cls-7" points="948.93 734.04 948.93 721.13 958.04 721.13 958.04 722.65 950.45 722.65 950.45 726.7 957.53 726.7 957.53 728.22 950.45 728.22 950.45 732.52 958.55 732.52 958.55 734.04 948.93 734.04"/><path class="cls-7" d="M960.06,730l1.78-.26a2.11,2.11,0,0,0,.5,1.52,1.82,1.82,0,0,0,1.27,1,4.77,4.77,0,0,0,2,.5,3.3,3.3,0,0,0,1.52-.25,5.86,5.86,0,0,0,1.27-.76,2.32,2.32,0,0,0,.25-1.27,1.53,1.53,0,0,0-.25-1,6.28,6.28,0,0,0-1.27-.76c-.25,0-1-.25-2.28-.5-1-.51-2-.76-2.53-1a2.49,2.49,0,0,1-1.26-1,3.59,3.59,0,0,1-.51-1.77,3.06,3.06,0,0,1,2.28-3,7.45,7.45,0,0,1,2.28-.5,7.54,7.54,0,0,1,2.53.5,4.66,4.66,0,0,1,1.77,1.27,7.47,7.47,0,0,1,.51,2.28H968.4c-.26-.76-.51-1.52-1-1.78a3.8,3.8,0,0,0-4.55,0,2,2,0,0,0-.51,1.27c0,.51,0,.76.51,1,.25.51,1,.76,2.53,1a14.13,14.13,0,0,1,2.78.76,11.08,11.08,0,0,1,1.78,1.27,6,6,0,0,1,.5,2,2.74,2.74,0,0,1-.76,1.78,2.28,2.28,0,0,1-1.52,1.51,7.31,7.31,0,0,1-2.53.51,9,9,0,0,1-3-.51,5.11,5.11,0,0,1-1.78-1.51,4.15,4.15,0,0,1-.76-2.28Z"/><polygon class="cls-7" points="975.76 734.04 975.76 722.65 971.71 722.65 971.71 721.13 981.83 721.13 981.83 722.65 977.53 722.65 977.53 734.04 975.76 734.04"/><path class="cls-7" d="M980.82,734l4.81-12.91h2L992.71,734h-1.77l-1.52-3.8h-5.31l-1.52,3.8Zm3.8-5.32h4.3l-1.27-3.54a19.72,19.72,0,0,1-1-2.79c-.25,1-.51,1.78-.76,2.54Z"/><path class="cls-6" d="M922.61,734l4.8-12.91h2L934.5,734h-1.77l-1.52-3.8H925.9l-1.52,3.8Zm3.79-5.32h4.3l-1.26-3.54a18.17,18.17,0,0,1-1-2.79c-.26,1-.51,1.78-.76,2.54Z"/><path class="cls-6" d="M936,734V721.13h5.57a5.39,5.39,0,0,1,2.53.51,1.69,1.69,0,0,1,1.52,1,3.08,3.08,0,0,1,.5,2,3.12,3.12,0,0,1-.76,2.28,4.77,4.77,0,0,1-2.78,1.27c.51.25.76.5,1,.5a10.69,10.69,0,0,1,1.52,1.77l2,3.55h-2l-1.77-2.79a11,11,0,0,0-1.27-1.77l-.76-.76a1,1,0,0,0-.75-.25c-.26,0-.51-.25-1-.25h-2V734Zm1.52-7.09h3.79c.76,0,1.27-.25,1.78-.25a3.68,3.68,0,0,0,1-.76,2.32,2.32,0,0,0,.25-1.27,3.55,3.55,0,0,0-.5-1.52,5.13,5.13,0,0,0-2.28-.5h-4Z"/><polygon class="cls-6" points="948.93 734.04 948.93 721.13 958.04 721.13 958.04 722.65 950.45 722.65 950.45 726.7 957.53 726.7 957.53 728.22 950.45 728.22 950.45 732.52 958.55 732.52 958.55 734.04 948.93 734.04"/><path class="cls-6" d="M960.06,730l1.78-.26a2.11,2.11,0,0,0,.5,1.52,1.82,1.82,0,0,0,1.27,1,4.77,4.77,0,0,0,2,.5,3.3,3.3,0,0,0,1.52-.25,5.86,5.86,0,0,0,1.27-.76,2.32,2.32,0,0,0,.25-1.27,1.53,1.53,0,0,0-.25-1,6.28,6.28,0,0,0-1.27-.76c-.25,0-1-.25-2.28-.5-1-.51-2-.76-2.53-1a2.49,2.49,0,0,1-1.26-1,3.59,3.59,0,0,1-.51-1.77,3.06,3.06,0,0,1,2.28-3,7.45,7.45,0,0,1,2.28-.5,7.54,7.54,0,0,1,2.53.5,4.66,4.66,0,0,1,1.77,1.27,7.47,7.47,0,0,1,.51,2.28H968.4c-.26-.76-.51-1.52-1-1.78a3.8,3.8,0,0,0-4.55,0,2,2,0,0,0-.51,1.27c0,.51,0,.76.51,1,.25.51,1,.76,2.53,1a14.13,14.13,0,0,1,2.78.76,11.08,11.08,0,0,1,1.78,1.27,6,6,0,0,1,.5,2,2.74,2.74,0,0,1-.76,1.78,2.28,2.28,0,0,1-1.52,1.51,7.31,7.31,0,0,1-2.53.51,9,9,0,0,1-3-.51,5.11,5.11,0,0,1-1.78-1.51,4.15,4.15,0,0,1-.76-2.28Z"/><polygon class="cls-6" points="975.76 734.04 975.76 722.65 971.71 722.65 971.71 721.13 981.83 721.13 981.83 722.65 977.53 722.65 977.53 734.04 975.76 734.04"/><path class="cls-6" d="M980.82,734l4.81-12.91h2L992.71,734h-1.77l-1.52-3.8h-5.31l-1.52,3.8Zm3.8-5.32h4.3l-1.27-3.54a19.72,19.72,0,0,1-1-2.79c-.25,1-.51,1.78-.76,2.54Z"/><path class="cls-8" d="M762.39,989.67H732.27c-3.54,6.07-7.08,12.15-10.88,18.22H698.11c8.85-13.41,18-27.08,26.57-40.49,8.61-13.67,17.21-27.09,25.56-40.75h25.31c1.78,13.66,3.55,27.08,5.57,40.75,2.28,13.41,4.81,27.08,7.34,40.49h-24c-.76-6.07-1.27-12.15-2-18.22Zm-1.52-14.43c-.5-6.58-1-12.91-1.51-19.49-.26-4.3-.51-8.6-.51-12.9h-.25c-2.28,4.3-4.31,8.6-6.58,12.9-3.8,6.33-7.6,12.91-11.39,19.49Zm78.72,3H826.17c-.76,5.06-1.51,9.87-2.27,14.93-.76,4.81-1.52,9.87-2.53,14.68H798.84c2.28-13.41,4.81-27.08,7.34-40.49,2.28-13.67,4.81-27.09,7.34-40.75h38.72q14.81,0,22,6.83,7.6,6.45,6.08,19a28,28,0,0,1-5.57,14.94,29.35,29.35,0,0,1-13.41,8.6q4.17,8,9.11,16c3,5.31,6.32,10.63,9.61,15.94H854.52c-2.53-4.81-5.31-9.87-7.59-14.68-2.53-5.06-5.06-9.87-7.34-14.93Zm-11.14-14.93h15.19c4.81,0,8.35-1,10.63-2.53a10.45,10.45,0,0,0,4.05-7.85c.5-3.54-.26-6.08-2-7.85-2-1.52-5.06-2.53-9.87-2.53H831.74c-1,7.09-2,13.92-3.29,20.76ZM963.1,991.69c-.25,5.32-.25,10.89-.25,16.2H891.73c1-13.41,2.28-27.08,3.29-40.49,1.26-13.67,2.28-27.09,3.54-40.75h63.28c0,5.56,0,10.88-.26,16.45H918.81c-.51,5.57-.76,10.88-1,16.45h34.67c0,5.06,0,10.38-.25,15.44H916.78c-.25,5.57-.5,11.14-1,16.7Zm44.8-66.31a54.72,54.72,0,0,1,20.25,3.54c5.57,2.28,10.88,6.08,16.2,11.14-3.8,4.56-7.6,9.37-11.14,13.92a35.11,35.11,0,0,0-10.63-9.11c-3.8-2-8.35-2.78-13.41-2.78-4.31,0-7.85.5-10.13,2a6.87,6.87,0,0,0-3.29,6.08c0,2,1.52,3.54,4,4.8s6.83,2.54,12.91,3.55c11.9,2,20.25,5.06,25.56,9.11,5.32,3.8,8.35,9.36,9.11,16.45.26,5.32-.76,9.87-3.79,13.41a24.63,24.63,0,0,1-12.66,8.61,55.6,55.6,0,0,1-19.23,3c-10.13,0-18.23-1-24.55-3.29a44.42,44.42,0,0,1-16.46-10.38c4-5.06,7.85-9.87,11.65-14.93A28.58,28.58,0,0,0,994,989.92a43,43,0,0,0,16,2.79c4.8,0,8.35-.76,10.63-2,2.53-1.26,3.54-3,3.54-5.31-.25-2-1.52-3.55-4.3-4.56-2.53-1.27-6.84-2.28-12.91-3.54a82.71,82.71,0,0,1-18.48-5.07A26.55,26.55,0,0,1,977,964.61c-2.53-3.29-3.79-7.59-3.79-12.65a21.74,21.74,0,0,1,4-13.67,27.45,27.45,0,0,1,12.14-9.37,45.6,45.6,0,0,1,18.48-3.54Zm117.69,17.72h-27.08c1.77,10.88,3.29,21.76,4.81,32.4,1.52,10.88,3.29,21.76,4.81,32.39h-23.29c-1.26-10.63-2.78-21.51-4-32.39s-2.53-21.52-3.79-32.4h-27.34c-.25-5.57-.76-10.89-1.26-16.45h74.16c1,5.56,2,10.88,3,16.45Zm59.48,46.57H1154.7l-2.28,18.22h-23.54c3-13.41,5.82-27.08,8.1-40.49,2.53-13.67,4.81-27.09,6.84-40.75h25.31c8.09,13.66,16.19,27.08,24.55,40.75,8.1,13.41,16.7,27.08,25.56,40.49h-23.79C1191.9,1001.82,1188.36,995.74,1185.07,989.67Zm-8.1-14.43c-3.54-6.58-7.09-12.91-10.63-19.49-2-4.3-4.3-8.6-6.33-12.9h-.5c0,4.3-.26,8.6-.51,12.9-.76,6.33-1.52,12.91-2.28,19.49Z"/></svg>