<?xml version="1.0" encoding="utf-8"?>
<!-- Generator: Adobe Illustrator 25.2.0, SVG Export Plug-In . SVG Version: 6.00 Build 0)  -->
<svg version="1.1" id="Layer_1" xmlns="http://www.w3.org/2000/svg" xmlns:xlink="http://www.w3.org/1999/xlink" x="0px" y="0px"
	 viewBox="0 0 1920 1080" style="enable-background:new 0 0 1920 1080;" xml:space="preserve">
<style type="text/css">
	.st0{fill:#14042D;stroke:#14042D;stroke-width:0.23;stroke-miterlimit:10;}
	.st1{fill-rule:evenodd;clip-rule:evenodd;stroke:#14042D;stroke-width:0.51;stroke-miterlimit:10;}
	.st2{fill:#FF00C3;stroke:#14042D;stroke-width:0.51;stroke-miterlimit:10;}
	.st3{fill-rule:evenodd;clip-rule:evenodd;stroke:#14042D;stroke-width:0.23;stroke-miterlimit:10;}
	.st4{fill-rule:evenodd;clip-rule:evenodd;fill:#FF00C3;stroke:#14042D;stroke-width:0.23;stroke-miterlimit:10;}
	.st5{fill:none;stroke:#14042D;stroke-width:0.23;stroke-miterlimit:10;}
	.st6{fill:#FF00C3;}
	.st7{fill:#14042D;}
</style>
<rect x="0.5" y="-0.5" class="st0" width="1919" height="1080"/>
<path d="M791.8,956.6l11.3,13.2c0.6,0.6,1.5,0.6,2.1,0c0.6-0.6,0.6-1.5,0-2.1l-11.3-13.2c-0.6-0.6-1.5-0.6-2.1,0
	C791.2,955.1,791.2,956,791.8,956.6z"/>
<g>
	<path class="st1" d="M1479.7,742.9l1.8-704.9c0.5-13.7-3.8-21-12.4-21.5H453.4c-4.8,0.3-9.4,2.5-12.7,6.1
		c-3.2,3.6-4.9,8.3-4.5,13.2v707.2H1479.7z"/>
	<rect x="449" y="33" class="st2" width="1020" height="677.8"/>
	<path class="st3" d="M234.7,1045.1h1448.8c-33.9-50.6-67.8-101.5-101.8-152.1c-33.7-50.6-67.8-101.2-101.8-151.9H436.1
		c-33.4,50.6-67.3,101.2-100.7,151.9C301.8,943.9,268.3,994.5,234.7,1045.1L234.7,1045.1z"/>
</g>
<path class="st4" d="M234.7,1045.1h1448.8c2.3,11.9-3.6,17.7-17.2,17.2H247.6c-4-0.4-7.7-2.5-10.1-5.8
	C234.9,1053.3,233.9,1049.1,234.7,1045.1z"/>
<rect x="790.5" y="1045.1" class="st0" width="340.9" height="17.2"/>
<path class="st4" d="M459.7,770.7h998.5l41,67.6c13.4,22.5,27.1,45.1,40.5,67.6H380.5c13.2-22.5,26.3-45,39.5-67.6
	C433.1,815.8,446.5,793.3,459.7,770.7z"/>
<path class="st4" d="M713,912.2h493c6.6,22,13.4,44.3,20,66.6c6.8,22,13.4,44,20,66.3H674c6.6-22.3,12.9-44.3,19.5-66.3
	C700.1,956.5,706.6,934.2,713,912.2L713,912.2z"/>
<path class="st5" d="M440.7,803.4c35.2,8.1,1026.8,8.3,1038.5,2"/>
<path class="st5" d="M509,779.3c-1,49.6-10.4,12.2,23.8,24c0,0,5.3,14.9-2,20.8c8.8,25.8,12.9-35.4,10.6,26.6
	c-0.3,3.8,52.1-12.2,17.2,55.2"/>
<path class="st5" d="M580.7,770.7c1.3,91.1,3-14.7,28.1,57.7c40.8,14.2-40.8-1.3,34.7,24.8c1.8,7.8-13.2,36.4-13.2,52.6"/>
<path class="st5" d="M652.3,770.7c-9.4,96.7,9.6-7.6,19.2,54.7c2.3,13.7,42.8,3,42.8,62.8c0,2.8-0.2,6.6,0.5,9.1"/>
<path class="st5" d="M794,882.1c-17.2-89.1-37.2,20.2-37.2-59c2,6.3-42.5-25.3-42.5-30.6c0-28.8,19-10.6,9.1-21.8"/>
<path class="st5" d="M781.1,779.3c-0.5,67.8,36.7-17.2,42.5,46.8c1.3,16.2,14.7-27.1,14.7,30.6c11.4,0,19.7-2.5,26.6-2.5
	c0,3.3,0.5,19-0.2,21.5"/>
<path class="st5" d="M948.4,875.8c-11.4-68.1-34.2,21.5-38.2-47.8c-1-16.7-17,20-20.8-21.3c-3-33.2-22.3,43.8-33.7-40l-1.8,4"/>
<path class="st5" d="M1021.1,878c7.1-65.8-32.7,7.3-41.8-50.4c-67.8-10.6,32.1-3.8-52.4-23c-0.8-0.2-6.1-30.1-6.1-33.9"/>
<path class="st5" d="M1327.6,875.8c-31.9-54.4,23.8,4,23.8-51.9c8.1-3.5,106.1-25.1,8.3-18.5c-0.8,0.2-33.9-33.9-33.9-34.7"/>
<path class="st5" d="M1250.4,871.5c-20-48.1,23.3,5.6,30.1-45c2.5-17.2,50.1,16.5,41.5-20.5c-38-9.9-22.3,27.1-57-35.2"/>
<path class="st5" d="M1175.4,871.5c-12.4-42,83.3-25.8,4.6-44c-9.6-56.7,41.5,25.8,27.8-56.7"/>
<path class="st5" d="M1091.9,869.5c-8.9-56.7,47.6,6.8,36.7-45.3c-88.3-34.7,42.3-0.5,6.1-44.8"/>
<path class="st5" d="M1059.8,850c13.2-44.3-21.3-0.5-24.6-47.8c-1-14.7-41.8,23.3-40.2-31.4"/>
<path class="st5" d="M1064.1,770.7c-2,14.2,0.2,25.3,0.2,39"/>
<path class="st5" d="M715.3,905.9h414.8c-2.8-20-4.1-30.1-4.1-30.1H723.4C719.9,884.1,717.3,894.2,715.3,905.9z"/>
<path class="st5" d="M440.7,803.4c692.2,1.3,1038.4,1.9,1038.5,2"/>
<path class="st5" d="M429.1,822.9l1063,3.8"/>
<path class="st5" d="M1506.8,851.2H412.4"/>
<path class="st5" d="M397.9,876.3H1522"/>
<path class="st6" d="M922.6,734l4.8-12.9h2l5.1,12.9h-1.8l-1.5-3.8h-5.3l-1.5,3.8H922.6z M926.4,728.7h4.3l-1.3-3.5
	c-0.4-0.9-0.7-1.8-1-2.8c-0.3,1-0.5,1.8-0.8,2.5L926.4,728.7z"/>
<path class="st6" d="M936,734v-12.9h5.6c0.9,0,1.7,0.1,2.5,0.5c0.7,0,1.2,0.4,1.5,1c0.4,0.6,0.6,1.3,0.5,2c0.1,0.8-0.2,1.7-0.8,2.3
	c-0.8,0.7-1.7,1.2-2.8,1.3c0.5,0.2,0.8,0.5,1,0.5c0.6,0.5,1.1,1.1,1.5,1.8l2,3.5h-2l-1.8-2.8c-0.4-0.6-0.8-1.2-1.3-1.8l-0.8-0.8
	c-0.2-0.2-0.5-0.3-0.8-0.2c-0.3,0-0.5-0.2-1-0.2h-2v5.8H936z M937.5,726.9h3.8c0.8,0,1.3-0.2,1.8-0.2c0.4-0.2,0.7-0.5,1-0.8
	c0.2-0.4,0.3-0.8,0.2-1.3c-0.1-0.5-0.2-1.1-0.5-1.5c-0.7-0.3-1.5-0.5-2.3-0.5h-4L937.5,726.9z"/>
<polygon class="st6" points="948.9,734 948.9,721.1 958,721.1 958,722.7 950.5,722.7 950.5,726.7 957.5,726.7 957.5,728.2 
	950.5,728.2 950.5,732.5 958.5,732.5 958.5,734 "/>
<path class="st6" d="M960.1,730l1.8-0.3c0,0.6,0.1,1.1,0.5,1.5c0.2,0.5,0.7,0.9,1.3,1c0.6,0.3,1.3,0.5,2,0.5c0.5,0,1,0,1.5-0.2
	c0.5-0.2,0.9-0.5,1.3-0.8c0.2-0.4,0.3-0.8,0.2-1.3c0-0.4-0.1-0.7-0.2-1c-0.4-0.3-0.8-0.6-1.3-0.8c-0.2,0-1-0.2-2.3-0.5
	c-1-0.5-2-0.8-2.5-1c-0.5-0.2-1-0.5-1.3-1c-0.3-0.5-0.5-1.1-0.5-1.8c0-1.4,0.9-2.6,2.3-3c0.7-0.3,1.5-0.5,2.3-0.5
	c0.9,0,1.7,0.2,2.5,0.5c0.7,0.3,1.3,0.7,1.8,1.3c0.3,0.7,0.5,1.5,0.5,2.3h-1.5c-0.3-0.8-0.5-1.5-1-1.8c-1.3-1-3.2-1-4.5,0
	c-0.3,0.4-0.5,0.8-0.5,1.3c0,0.5,0,0.8,0.5,1c0.2,0.5,1,0.8,2.5,1c1,0.2,1.9,0.4,2.8,0.8c0.6,0.4,1.2,0.8,1.8,1.3
	c0.3,0.6,0.4,1.3,0.5,2c0,0.7-0.3,1.3-0.8,1.8c-0.2,0.7-0.8,1.3-1.5,1.5c-0.8,0.3-1.7,0.5-2.5,0.5c-1,0-2-0.2-3-0.5
	c-0.8-0.2-1.3-1-1.8-1.5C960.4,731.6,960.1,730.8,960.1,730L960.1,730z"/>
<polygon class="st6" points="975.8,734 975.8,722.7 971.7,722.7 971.7,721.1 981.8,721.1 981.8,722.7 977.5,722.7 977.5,734 "/>
<path class="st6" d="M980.8,734l4.8-12.9h2l5.1,12.9h-1.8l-1.5-3.8h-5.3l-1.5,3.8H980.8z M984.6,728.7h4.3l-1.3-3.5
	c-0.4-0.9-0.7-1.8-1-2.8c-0.2,1-0.5,1.8-0.8,2.5L984.6,728.7z"/>
<path class="st5" d="M922.6,734l4.8-12.9h2l5.1,12.9h-1.8l-1.5-3.8h-5.3l-1.5,3.8H922.6z M926.4,728.7h4.3l-1.3-3.5
	c-0.4-0.9-0.7-1.8-1-2.8c-0.3,1-0.5,1.8-0.8,2.5L926.4,728.7z"/>
<path class="st5" d="M936,734v-12.9h5.6c0.9,0,1.7,0.1,2.5,0.5c0.7,0,1.2,0.4,1.5,1c0.4,0.6,0.6,1.3,0.5,2c0.1,0.8-0.2,1.7-0.8,2.3
	c-0.8,0.7-1.7,1.2-2.8,1.3c0.5,0.2,0.8,0.5,1,0.5c0.6,0.5,1.1,1.1,1.5,1.8l2,3.5h-2l-1.8-2.8c-0.4-0.6-0.8-1.2-1.3-1.8l-0.8-0.8
	c-0.2-0.2-0.5-0.3-0.8-0.2c-0.3,0-0.5-0.2-1-0.2h-2v5.8H936z M937.5,726.9h3.8c0.8,0,1.3-0.2,1.8-0.2c0.4-0.2,0.7-0.5,1-0.8
	c0.2-0.4,0.3-0.8,0.2-1.3c-0.1-0.5-0.2-1.1-0.5-1.5c-0.7-0.3-1.5-0.5-2.3-0.5h-4L937.5,726.9z"/>
<polygon class="st5" points="948.9,734 948.9,721.1 958,721.1 958,722.7 950.5,722.7 950.5,726.7 957.5,726.7 957.5,728.2 
	950.5,728.2 950.5,732.5 958.5,732.5 958.5,734 "/>
<path class="st5" d="M960.1,730l1.8-0.3c0,0.6,0.1,1.1,0.5,1.5c0.2,0.5,0.7,0.9,1.3,1c0.6,0.3,1.3,0.5,2,0.5c0.5,0,1,0,1.5-0.2
	c0.5-0.2,0.9-0.5,1.3-0.8c0.2-0.4,0.3-0.8,0.2-1.3c0-0.4-0.1-0.7-0.2-1c-0.4-0.3-0.8-0.6-1.3-0.8c-0.2,0-1-0.2-2.3-0.5
	c-1-0.5-2-0.8-2.5-1c-0.5-0.2-1-0.5-1.3-1c-0.3-0.5-0.5-1.1-0.5-1.8c0-1.4,0.9-2.6,2.3-3c0.7-0.3,1.5-0.5,2.3-0.5
	c0.9,0,1.7,0.2,2.5,0.5c0.7,0.3,1.3,0.7,1.8,1.3c0.3,0.7,0.5,1.5,0.5,2.3h-1.5c-0.3-0.8-0.5-1.5-1-1.8c-1.3-1-3.2-1-4.5,0
	c-0.3,0.4-0.5,0.8-0.5,1.3c0,0.5,0,0.8,0.5,1c0.2,0.5,1,0.8,2.5,1c1,0.2,1.9,0.4,2.8,0.8c0.6,0.4,1.2,0.8,1.8,1.3
	c0.3,0.6,0.4,1.3,0.5,2c0,0.7-0.3,1.3-0.8,1.8c-0.2,0.7-0.8,1.3-1.5,1.5c-0.8,0.3-1.7,0.5-2.5,0.5c-1,0-2-0.2-3-0.5
	c-0.8-0.2-1.3-1-1.8-1.5C960.4,731.6,960.1,730.8,960.1,730L960.1,730z"/>
<polygon class="st5" points="975.8,734 975.8,722.7 971.7,722.7 971.7,721.1 981.8,721.1 981.8,722.7 977.5,722.7 977.5,734 "/>
<path class="st5" d="M980.8,734l4.8-12.9h2l5.1,12.9h-1.8l-1.5-3.8h-5.3l-1.5,3.8H980.8z M984.6,728.7h4.3l-1.3-3.5
	c-0.4-0.9-0.7-1.8-1-2.8c-0.2,1-0.5,1.8-0.8,2.5L984.6,728.7z"/>
<path class="st7" d="M762.4,989.7h-30.1c-3.5,6.1-7.1,12.2-10.9,18.2h-23.3c8.8-13.4,18-27.1,26.6-40.5
	c8.6-13.7,17.2-27.1,25.6-40.8h25.3c1.8,13.7,3.5,27.1,5.6,40.8c2.3,13.4,4.8,27.1,7.3,40.5h-24
	C763.7,1001.8,763.2,995.7,762.4,989.7L762.4,989.7z M760.9,975.2c-0.5-6.6-1-12.9-1.5-19.5c-0.3-4.3-0.5-8.6-0.5-12.9h-0.2
	c-2.3,4.3-4.3,8.6-6.6,12.9c-3.8,6.3-7.6,12.9-11.4,19.5H760.9z M839.6,978.2h-13.4c-0.8,5.1-1.5,9.9-2.3,14.9
	c-0.8,4.8-1.5,9.9-2.5,14.7h-22.5c2.3-13.4,4.8-27.1,7.3-40.5c2.3-13.7,4.8-27.1,7.3-40.8h38.7c9.9,0,17.2,2.3,22,6.8
	c5.1,4.3,7.1,10.6,6.1,19c-0.4,5.4-2.3,10.6-5.6,14.9c-3.6,4-8.2,7-13.4,8.6c2.8,5.3,5.8,10.7,9.1,16c3,5.3,6.3,10.6,9.6,15.9h-25.5
	c-2.5-4.8-5.3-9.9-7.6-14.7C844.4,988.2,841.9,983.4,839.6,978.2L839.6,978.2z M828.4,963.3h15.2c4.8,0,8.3-1,10.6-2.5
	c2.4-1.9,3.9-4.8,4-7.8c0.5-3.5-0.3-6.1-2-7.8c-2-1.5-5.1-2.5-9.9-2.5h-14.7C830.7,949.6,829.7,956.5,828.4,963.3L828.4,963.3z
	 M963.1,991.7c-0.2,5.3-0.2,10.9-0.2,16.2h-71.1c1-13.4,2.3-27.1,3.3-40.5c1.3-13.7,2.3-27.1,3.5-40.8h63.3c0,5.6,0,10.9-0.3,16.5
	h-42.8c-0.5,5.6-0.8,10.9-1,16.5h34.7c0,5.1,0,10.4-0.2,15.4h-35.4c-0.2,5.6-0.5,11.1-1,16.7L963.1,991.7z M1007.9,925.4
	c6.9-0.1,13.8,1.1,20.2,3.5c5.6,2.3,10.9,6.1,16.2,11.1c-3.8,4.6-7.6,9.4-11.1,13.9c-2.9-3.7-6.5-6.8-10.6-9.1
	c-3.8-2-8.3-2.8-13.4-2.8c-4.3,0-7.8,0.5-10.1,2c-2.1,1.3-3.4,3.6-3.3,6.1c0,2,1.5,3.5,4,4.8s6.8,2.5,12.9,3.5
	c11.9,2,20.3,5.1,25.6,9.1c5.3,3.8,8.3,9.4,9.1,16.5c0.3,5.3-0.8,9.9-3.8,13.4c-3.2,4.1-7.6,7.2-12.7,8.6c-6.2,2.1-12.7,3.1-19.2,3
	c-10.1,0-18.2-1-24.5-3.3c-6.2-2.2-11.8-5.7-16.5-10.4c4-5.1,7.8-9.9,11.7-14.9c3,4.1,7,7.4,11.7,9.4c5.1,1.9,10.5,2.9,16,2.8
	c4.8,0,8.3-0.8,10.6-2c2.5-1.3,3.5-3,3.5-5.3c-0.2-2-1.5-3.5-4.3-4.6c-2.5-1.3-6.8-2.3-12.9-3.5c-6.3-1-12.5-2.7-18.5-5.1
	c-4.4-1.5-8.4-4.1-11.4-7.6c-2.5-3.3-3.8-7.6-3.8-12.7c-0.2-4.9,1.2-9.7,4-13.7c2.8-4,6.8-7.1,12.1-9.4
	C995.2,926.5,1001.5,925.3,1007.9,925.4L1007.9,925.4z M1125.6,943.1h-27.1c1.8,10.9,3.3,21.8,4.8,32.4c1.5,10.9,3.3,21.8,4.8,32.4
	h-23.3c-1.3-10.6-2.8-21.5-4-32.4s-2.5-21.5-3.8-32.4h-27.3c-0.2-5.6-0.8-10.9-1.3-16.5h74.2
	C1123.6,932.2,1124.6,937.5,1125.6,943.1L1125.6,943.1z M1185.1,989.7h-30.4l-2.3,18.2h-23.5c3-13.4,5.8-27.1,8.1-40.5
	c2.5-13.7,4.8-27.1,6.8-40.8h25.3c8.1,13.7,16.2,27.1,24.6,40.8c8.1,13.4,16.7,27.1,25.6,40.5h-23.8
	C1191.9,1001.8,1188.4,995.7,1185.1,989.7z M1177,975.2c-3.5-6.6-7.1-12.9-10.6-19.5c-2-4.3-4.3-8.6-6.3-12.9h-0.5
	c0,4.3-0.3,8.6-0.5,12.9c-0.8,6.3-1.5,12.9-2.3,19.5H1177z"/>
</svg>
