<svg xmlns="http://www.w3.org/2000/svg" viewBox="0 0 1366 499.31"><defs><style>.a{fill:#ff00c3;}</style></defs><path class="a" d="M268.47,482.63H269l-5.84,16.68h-.55Z"/><path class="a" d="M272.86,482.63h.55l-5.84,16.68H267Z"/><path class="a" d="M277.26,482.63h.55L272,499.31h-.55Z"/><path class="a" d="M284.58,497.13a4.67,4.67,0,0,1-1.87-1.24l.32-.42a4.61,4.61,0,0,0,1.73,1.16,6.16,6.16,0,0,0,2.36.45,4.53,4.53,0,0,0,2.81-.74,2.29,2.29,0,0,0,.95-1.88,2,2,0,0,0-.5-1.43,3.11,3.11,0,0,0-1.22-.81,16,16,0,0,0-2-.58A19,19,0,0,1,285,491a3.56,3.56,0,0,1-1.38-1,2.57,2.57,0,0,1-.56-1.75,2.92,2.92,0,0,1,.46-1.6,3.15,3.15,0,0,1,1.4-1.16,5.71,5.71,0,0,1,2.37-.43,6.76,6.76,0,0,1,2,.3,5.22,5.22,0,0,1,1.67.83l-.26.48a5.57,5.57,0,0,0-1.62-.8,5.82,5.82,0,0,0-1.76-.28,4.28,4.28,0,0,0-2.74.75,2.37,2.37,0,0,0-.93,1.91,2.05,2.05,0,0,0,.5,1.44,3.21,3.21,0,0,0,1.24.82,16,16,0,0,0,2,.59,17.79,17.79,0,0,1,2.16.65,3.29,3.29,0,0,1,1.37.95,2.57,2.57,0,0,1,.56,1.73A2.88,2.88,0,0,1,291,496a3.07,3.07,0,0,1-1.44,1.15,5.91,5.91,0,0,1-2.41.43A6.89,6.89,0,0,1,284.58,497.13Z"/><path class="a" d="M303.08,497v.55H294.7v-12.4h8.13v.55H295.3V491H302v.55H295.3V497Z"/><path class="a" d="M315.94,485.14l-5.56,12.4h-.59l-5.56-12.4h.67l5.21,11.62,5.19-11.62Z"/><path class="a" d="M326.46,497v.55h-8.38v-12.4h8.13v.55h-7.53V491h6.73v.55h-6.73V497Z"/><path class="a" d="M339.81,485.14v12.4h-.5l-8.8-11.3v11.3h-.6v-12.4h.5l8.8,11.3v-11.3Z"/><path class="a" d="M346.7,485.69h-4.55v-.55h9.68v.55h-4.55v11.85h-.58Z"/><path class="a" d="M362.55,497v.55h-8.38v-12.4h8.13v.55h-7.53V491h6.73v.55h-6.73V497Z"/><path class="a" d="M374.38,497v.55H366v-12.4h8.13v.55h-7.52V491h6.73v.55h-6.73V497Z"/><path class="a" d="M387.73,485.14v12.4h-.49l-8.8-11.3v11.3h-.61v-12.4h.5l8.8,11.3v-11.3Z"/><path class="a" d="M394.62,485.69h-4.55v-.55h9.69v.55h-4.55v11.85h-.59Z"/><path class="a" d="M410.81,497.54l-3.06-4.27a7.84,7.84,0,0,1-1.35.11h-3.7v4.16h-.6v-12.4h4.3a5.45,5.45,0,0,1,3.62,1.09,3.72,3.72,0,0,1,1.3,3,3.76,3.76,0,0,1-3,3.88l3.17,4.41Zm-4.37-4.71a4.82,4.82,0,0,0,3.18-.93,3.67,3.67,0,0,0,0-5.28,4.82,4.82,0,0,0-3.18-.93H402.7v7.14Z"/><path class="a" d="M422.41,493.91H415l-1.66,3.63h-.66l5.74-12.4H419l5.74,12.4h-.65Zm-.23-.52-3.47-7.56-3.49,7.56Z"/><path class="a" d="M427.14,485.14h.6v12.4h-.6Z"/><path class="a" d="M432.28,485.14h.6V497h7.26v.55h-7.86Z"/><path class="a" d="M451,497v.55h-8.38v-12.4h8.13v.55h-7.52V491h6.73v.55h-6.73V497Z"/><path class="a" d="M463.13,497.54l-3.07-4.27a7.81,7.81,0,0,1-1.34.11H455v4.16h-.61v-12.4h4.31a5.47,5.47,0,0,1,3.62,1.09,3.72,3.72,0,0,1,1.3,3,3.76,3.76,0,0,1-3,3.88l3.17,4.41Zm-4.38-4.71a4.85,4.85,0,0,0,3.19-.93,3.67,3.67,0,0,0,0-5.28,4.85,4.85,0,0,0-3.19-.93H455v7.14Z"/><rect class="a" y="376.07" width="262.44" height="3"/><rect class="a" x="1103.56" y="376.07" width="262.44" height="3"/><rect class="a" x="1103.56" y="355.07" width="262.44" height="3"/><rect class="a" y="355.07" width="262.44" height="3"/><rect class="a" y="334.07" width="262.44" height="3"/><rect class="a" x="1103.56" y="334.07" width="262.44" height="3"/><rect class="a" y="313.07" width="262.44" height="3"/><rect class="a" x="1103.56" y="313.07" width="262.44" height="3"/><rect class="a" x="1103.56" y="292.07" width="262.44" height="3"/><rect class="a" y="292.07" width="262.44" height="3"/><rect class="a" y="271.07" width="262.44" height="3"/><rect class="a" x="1103.56" y="271.07" width="262.44" height="3"/><rect class="a" y="250.07" width="262.44" height="3"/><rect class="a" x="1103.56" y="250.07" width="262.44" height="3"/><rect class="a" y="229.07" width="262.44" height="3"/><rect class="a" x="1103.56" y="229.07" width="262.44" height="3"/><rect class="a" y="208.07" width="262.44" height="3"/><rect class="a" x="1103.56" y="208.07" width="262.44" height="3"/><rect class="a" x="1103.56" y="187.07" width="262.44" height="3"/><rect class="a" y="187.07" width="262.44" height="3"/><rect class="a" x="1103.56" y="166.07" width="262.44" height="3"/><rect class="a" y="166.07" width="262.44" height="3"/><rect class="a" y="145.07" width="262.44" height="3"/><rect class="a" x="1103.56" y="145.07" width="262.44" height="3"/><rect class="a" x="1103.56" y="124.07" width="262.44" height="3"/><rect class="a" y="124.07" width="262.44" height="3"/><rect class="a" x="1101.56" y="169.07" width="2" height="18"/><rect class="a" x="1101.56" y="148.07" width="2" height="18"/><rect class="a" x="1101.56" y="127.07" width="2" height="18"/><rect class="a" x="1101.56" y="211.07" width="2" height="18"/><rect class="a" x="1101.56" y="190.07" width="2" height="18"/><rect class="a" x="1101.56" y="295.07" width="2" height="18"/><rect class="a" x="262.44" y="358.07" width="2" height="18"/><rect class="a" x="262.44" y="337.07" width="2" height="18"/><rect class="a" x="262.44" y="316.07" width="2" height="18"/><rect class="a" x="262.44" y="295.07" width="2" height="18"/><polygon class="a" points="1101.56 472 264.44 472 264.44 379.07 262.44 379.07 262.44 474 1103.56 474 1103.56 379.07 1101.56 379.07 1101.56 472"/><rect class="a" x="1101.56" y="358.07" width="2" height="18"/><rect class="a" x="1101.56" y="274.07" width="2" height="18"/><rect class="a" x="262.44" y="274.07" width="2" height="18"/><rect class="a" x="1101.56" y="316.07" width="2" height="18"/><rect class="a" x="1101.56" y="232.07" width="2" height="18"/><rect class="a" x="1101.56" y="337.07" width="2" height="18"/><polygon class="a" points="264.44 2 1101.56 2 1101.56 124.07 1103.56 124.07 1103.56 0 262.44 0 262.44 124.07 264.44 124.07 264.44 2"/><rect class="a" x="262.44" y="148.07" width="2" height="18"/><rect class="a" x="262.44" y="127.07" width="2" height="18"/><rect class="a" x="1101.56" y="253.07" width="2" height="18"/><rect class="a" x="262.44" y="169.07" width="2" height="18"/><rect class="a" x="262.44" y="211.07" width="2" height="18"/><rect class="a" x="262.44" y="232.07" width="2" height="18"/><rect class="a" x="262.44" y="253.07" width="2" height="18"/><rect class="a" x="262.44" y="190.07" width="2" height="18"/></svg>