<svg xmlns="http://www.w3.org/2000/svg" xmlns:xlink="http://www.w3.org/1999/xlink" viewBox="0 0 1840.55 1630.22"><defs><style>.a,.c,.d{fill:none;}.b{clip-path:url(#a);}.c,.d{stroke:#ff00c3;}.c{stroke-miterlimit:10;}.d{stroke-linecap:square;stroke-linejoin:round;}</style><clipPath id="a" transform="translate(191.64 -40.67)"><rect class="a" width="1366" height="1744"/></clipPath></defs><g class="b"><polygon class="c" points="0.5 108.12 414.42 108.12 388.96 218.82 0.5 222.63 0.5 108.12"/><polygon class="c" points="414.42 108.12 450.64 662.31 423.26 662.31 388.96 218.82 414.42 108.12"/><polygon class="c" points="388.96 218.82 423.26 662.31 91.59 662.31 86.45 672.1 70.07 672.1 0.5 892.65 0.5 222.63 388.96 218.82"/><polygon class="c" points="450.64 662.31 476.09 670.14 468.26 723.01 372.32 724.97 376.24 695.6 248.96 697.56 243.09 728.88 86.39 728.88 86.39 723.48 53.66 724.13 70.07 672.1 86.45 672.1 91.59 662.31 450.64 662.31"/><polygon class="c" points="473.71 686.23 489.54 686.23 481.63 758.6 450.64 758.6 450.64 746.23 460.43 746.23 459.85 723.18 468.26 723.01 473.71 686.23"/><polygon class="c" points="485.26 725.36 499.59 1028.46 493.72 1081.33 481.63 758.6 485.26 725.36"/><polygon class="c" points="481.63 758.6 450.64 758.6 450.64 763.54 460.43 764.13 472.23 1081.33 493.72 1081.33 481.63 758.6"/><polygon class="c" points="441.79 723.55 415.39 912.94 368.35 912.94 364.49 936.44 251.12 936.44 255.2 919.96 216.24 919.96 256.8 740.63 239.17 740.63 241.1 728.88 243.09 728.88 248.96 697.56 376.24 695.6 372.32 724.97 441.79 723.55"/><polygon class="c" points="211.88 735.35 198.05 801.33 243.07 801.33 256.8 740.63 239.17 740.63 240.04 735.35 211.88 735.35"/><polygon class="c" points="198.05 801.33 198.05 836.58 18.19 836.58 19.87 867.9 228.01 867.9 243.07 801.33 198.05 801.33"/><polyline class="c" points="8.3 867.9 9.97 867.9 19.87 867.9 228.01 867.9 216.24 919.96 216.24 938.65 0.5 938.65 0.5 895.62"/><polyline class="c" points="415.39 912.94 415.39 1008.4 427.14 1010.84 427.14 1033.44 456.51 1032.38 468.26 1237.97 472.23 1081.33"/><polygon class="c" points="606.28 903.35 651.54 903.35 651.54 867.67 738.47 867.67 742.38 1130.28 617.07 1128.32 606.28 903.35"/><polygon class="c" points="748.99 867.67 751.59 1130.28 773.85 1130.28 769.02 867.67 748.99 867.67"/><path class="c" d="M422.68,944v-8.1s26.66-6.91,37.22-5.38" transform="translate(191.64 -40.67)"/><polyline class="c" points="614.32 895.25 614.32 849.8 651.54 842.01 651.54 867.67"/><polyline class="c" points="608.2 903.35 613.16 811.12 763.92 809.16 769.02 867.67"/><line class="c" x1="738.52" y1="871.14" x2="749.03" y2="871.14"/><line class="c" x1="738.52" y1="894.64" x2="749.03" y2="894.64"/><line class="c" x1="738.52" y1="918.14" x2="749.03" y2="918.14"/><line class="c" x1="738.52" y1="941.63" x2="749.03" y2="941.63"/><line class="c" x1="740.48" y1="965.13" x2="750.98" y2="965.13"/><line class="c" x1="740.48" y1="988.62" x2="750.98" y2="988.62"/><line class="c" x1="740.48" y1="1012.12" x2="750.98" y2="1012.12"/><line class="c" x1="740.48" y1="1035.62" x2="750.98" y2="1035.62"/><line class="c" x1="740.48" y1="1059.11" x2="750.98" y2="1059.11"/><line class="c" x1="740.48" y1="1082.61" x2="750.98" y2="1082.61"/><line class="c" x1="740.48" y1="1102.19" x2="750.98" y2="1102.19"/><polygon class="c" points="427.14 1033.44 415.39 1119.7 411.48 1085.25 427.14 1010.84 427.14 1033.44"/><polygon class="c" points="374.28 999.09 362.53 1077.41 411.48 1085.25 427.14 1010.84 374.28 999.09"/><polygon class="c" points="374.28 999.09 327.28 1012.8 313.58 1087.2 362.53 1077.41 374.28 999.09"/><polygon class="c" points="313.58 1087.2 313.58 1119.7 415.39 1119.7 411.48 1085.25 362.53 1077.41 313.58 1087.2"/><polygon class="c" points="362.53 1119.7 0.5 1125.63 0.5 1354.16 88.62 1354.16 88.41 1343.7 100.15 1298.67 158.89 1298.67 164.77 1351.54 382.11 1347.62 362.53 1119.7"/><polyline class="c" points="468.26 1237.97 485.88 1447.48 477.07 1540.65 438.89 1124.41 456.51 1032.38"/><polyline class="d" points="438.89 1119.7 362.53 1119.7 382.11 1347.62 415.39 1347.62 433.02 1380.91 438.89 1380.91 446.72 1523.84 456.51 1480.77 459.62 1540.65 477.07 1540.65"/><polyline class="d" points="0.5 988.74 24.81 988.74 27.71 983.43 415.39 983.43"/><line class="d" x1="321.98" y1="1032.38" x2="0.5" y2="1032.38"/><line class="c" x1="456.51" y1="1480.77" x2="444.36" y2="1480.77"/><polyline class="c" points="459.62 1540.65 450.44 1626.83 415.39 1626.83 438.89 1380.91 433.02 1380.91 403.97 1626.83"/><line class="c" x1="404.1" y1="1625.79" x2="415.85" y2="1625.79"/><polygon class="c" points="415.39 1347.62 379.23 1625.8 338.18 1626.83 374.28 1396.57 368.85 1354.16 371.3 1347.82 415.39 1347.62"/><polyline class="c" points="371.3 1347.82 368.85 1354.16 325.32 1626.83 0.5 1626.83 0.5 1354.16"/><polygon class="c" points="656.23 1461.19 664.65 1626.83 741.82 1626.83 736.51 1463.14 656.23 1461.19"/><polygon class="c" points="775.95 1461.19 817.5 1461.19 817.5 1513.44 996.93 1508.18 996.93 1626.83 778.92 1626.83 775.95 1461.19"/><polyline class="c" points="736.51 1463.14 736.51 1429.85 775.95 1429.85 775.95 1461.19"/><polyline class="c" points="656.23 1461.19 662.11 1312.38 674.54 1312.38 674.54 1292.33 814.83 1292.8 817.5 1461.19"/><polyline class="c" points="817.15 1438.75 1002.01 1438.75 996.93 1508.18"/><polyline class="c" points="736.87 1454.7 775.95 1454.06 775.95 1473.46 736.51 1473.46 738.24 1516.48 776.92 1515.55 776.92 1524.82 738.53 1525.57 739.01 1540.22 777.37 1540.22 777.5 1547.65 739.25 1547.65 739.8 1564.71 777.8 1564.71 777.95 1572.68 740.06 1572.68 740.43 1588.46 778.21 1587.53 778.37 1596.44 740.88 1597.73"/><polygon class="c" points="634.69 1189.02 628.82 1271.26 720.05 1271.26 722.8 1155.73 653.27 1155.73 652.32 1189.02 634.69 1189.02"/><polyline class="c" points="722.8 1155.73 728.68 1249.72 728.68 1292.51 720.42 1292.33 720.05 1271.26 628.82 1271.26 634.69 1367.2 645.86 1367.2 648.4 1331.96 661.29 1331.96"/><polyline class="c" points="645.86 1367.2 636.65 1600.21 613.58 1600.21 613.58 1625.8 664.65 1626.83"/><polyline class="c" points="634.69 1367.2 631.01 1367.2 621.37 1600.21"/><polyline class="c" points="773.85 1130.28 773.85 1208.24 1016.35 1208.24 1020.42 1298.67 993.6 1298.67 992.12 1292.33 814.83 1292.8"/><polyline class="c" points="773.85 1144.43 613.58 1148.88 617.07 1128.32"/><polyline class="c" points="613.58 1148.88 617.07 1343.7 633.25 1343.7"/><polyline class="c" points="770.04 923.09 924.84 923.09 924.84 934.2 924.84 996.53 771.44 998.97"/><polygon class="c" points="924.84 961.03 1006.72 965.81 1012.59 1165.53 856.58 1165.53 859.18 997.57 924.84 996.53 924.84 961.03"/><polyline class="c" points="1012.59 1165.53 1012.59 1208.24 856.58 1208.24 856.58 1165.53"/><polyline class="c" points="1020.42 1293.32 1030.21 1292.8 1030.21 1331.91 993.01 1333.91 993.6 1298.67"/><polyline class="c" points="1030.21 1331.91 1032.17 1375.03 996.93 1375.03 993.01 1333.91"/><polygon class="c" points="891.2 1335.87 945.62 1335.87 945.62 1412.04 895.11 1412.04 891.2 1335.87"/><polyline class="c" points="945.62 1412.04 945.62 1438.75 897.14 1438.75 895.11 1412.04"/><polyline class="c" points="1005.72 1375.03 1011.61 1463.14 1000.22 1463.14"/><polyline class="c" points="1011.61 1463.14 1011.61 1505.53 997.12 1505.53"/><polyline class="c" points="1008.67 1419.09 1028.72 1419.09 1035.77 1505.53 1011.61 1505.53 1016.85 1626.83 996.93 1626.83"/><polyline class="c" points="1035.77 1505.53 1036.09 1545.38 1013.33 1545.38"/><polyline class="c" points="1057.84 1544.01 1057.84 1594.2 1037.68 1594.2 1038.74 1626.83 1036.09 1545.38 1057.84 1544.01 1050.98 1463.14 1032.17 1463.14"/><polygon class="c" points="1186.86 1048.04 1210.35 760.21 1263.22 1091.12 1233.85 1367.2 1186.86 1048.04"/><polyline class="c" points="1263.22 1091.12 1299.55 1091.12 1294.55 1142.03 1263.22 1152.34 1239.72 1371.12 1233.93 1366.4"/><polygon class="c" points="1449.23 1312.38 1492.31 1296.71 1562.8 1586.5 1509.93 1606.08 1449.23 1312.38"/><polygon class="c" points="1554.97 1308.46 1604.01 1296.71 1683.65 1586.5 1627.41 1602.16 1554.97 1308.46"/><polyline class="c" points="1683.22 1585.52 1681.25 1602.16 1627.41 1602.16"/><polygon class="c" points="1408.11 905.11 1479.48 905.11 1457.07 1122.45 1384.5 1122.45 1408.11 905.11"/><polygon class="c" points="1548.11 905.11 1619.58 903.15 1590.21 1126.36 1521.03 1126.36 1548.11 905.11"/><polygon class="c" points="1543.22 885.53 1548.11 905.11 1521.03 1126.36 1514.72 1109.33 1543.22 885.53"/><polygon class="c" points="1479.48 905.11 1473.91 885.53 1543.22 885.53 1514.72 1109.33 1458.42 1109.33 1479.48 905.11"/><polygon class="c" points="1312.17 922.73 1351.49 922.73 1353.29 891.4 1403.42 891.4 1408.11 905.11 1384.5 1122.45 1378.74 1114.62 1297.22 1114.79 1312.17 922.73"/><line class="c" x1="1403.42" y1="891.4" x2="1378.74" y2="1114.62"/><polyline class="c" points="1353.29 891.4 1329.79 803.29 1373.37 803.29 1384.5 847.35 1531.42 845.9 1537.34 865.95 1609.79 863.99 1619.58 903.15"/><polyline class="c" points="1312.17 922.73 1304.34 893.36 1338.92 893.36"/><polyline class="c" points="1210.35 760.21 1223.49 760.21 1299.55 1091.12"/><line class="c" x1="1304.34" y1="893.36" x2="1292.15" y2="1058.93"/><polygon class="c" points="1276.93 734.76 1288.67 795.46 1276.93 952.25 1269.09 914.9 1276.93 734.76"/><polyline class="c" points="1276.93 734.76 1309.93 734.76 1323.92 795.46 1288.67 795.46"/><line class="c" x1="1323.92" y1="795.46" x2="1317.11" y2="893.36"/><line class="c" x1="1276.93" y1="952.25" x2="1300" y2="952.25"/><polyline class="c" points="1560.41 1598.81 1567.4 1598.81 1573.59 1626.83 1508.05 1626.83 1509.93 1606.08 1558.99 1606.08 1562.8 1586.5"/><polyline class="c" points="1509.93 1606.08 1415.95 1608.04 1413.99 1600.21 1354.7 1600.21 1351.33 1570.84 1400.7 1570.84 1392.45 1519.93 1429.39 1519.93 1386.58 1312.38 1449.23 1312.38"/><polyline class="c" points="1351.33 1570.84 1347.78 1606.08 1351.33 1626.83 1354.7 1600.21"/><polyline class="c" points="1413.99 1600.21 1412.14 1626.83 1414.93 1626.83 1415.95 1608.04"/><polygon class="c" points="1370.91 1179.23 1372.87 1206.64 1652.87 1204.68 1646.99 1173.36 1370.91 1179.23"/><polyline class="c" points="1372.87 1206.64 1372.87 1241.14 1433.57 1239.93 1433.57 1248.56 1588.25 1243.85 1590.21 1236.01 1646.99 1236.01 1652.87 1204.68"/><polyline class="c" points="1433.57 1247.57 1441.4 1286.92 1384.38 1286.92 1372.87 1241.14 1372.87 1264.03 1386.58 1312.38"/><polyline class="c" points="1441.4 1286.92 1439.78 1312.38 1386.58 1312.38 1383.9 1285.03"/><polyline class="c" points="1590.21 1236.01 1603.92 1284.96 1662.38 1284.96 1646.99 1236.01"/><polyline class="c" points="1658.42 1284.96 1658.42 1312.38 1608.31 1312.38 1604.01 1296.71 1603.92 1284.96"/><polygon class="c" points="1500.38 1286.92 1506.02 1309.65 1549.1 1309.65 1542.42 1284.96 1500.38 1286.92"/><polyline class="c" points="1549.1 1309.65 1547.13 1353.49 1508.29 1353.49 1506.02 1309.65"/><polyline class="c" points="1372.87 1264.03 1292.59 1286.92 1335.16 1626.83"/><polyline class="c" points="1292.59 1286.92 1261.26 1529.72 1270.61 1626.83"/><line class="c" x1="1239.72" y1="1371.12" x2="1261.26" y2="1529.72"/><line class="c" x1="1263.22" y1="1152.34" x2="1286.18" y2="1336.58"/><line class="c" x1="1294.55" y1="1142.03" x2="1319.25" y2="1279.32"/><polygon class="c" points="1629.37 1615.87 1686.15 1600.21 1693.54 1626.83 1630.84 1626.83 1629.37 1615.87"/><polyline class="c" points="1657.68 1270.03 1699.86 1257.55 1795.8 1563 1762.55 1563 1762.52 1568.88 1735.84 1568.88 1731.19 1592.37 1686.15 1425.94 1700.22 1424.96 1692.03 1396.57 1695.94 1365.24 1678.32 1306.5 1658.42 1307.05"/><line class="c" x1="1740.66" y1="1626.83" x2="1731.19" y2="1592.37"/><polyline class="c" points="1795.8 1563 1828.95 1563 1837.49 1592.37 1768.48 1592.37 1762.55 1563"/><polyline class="c" points="1837.49 1592.37 1832.29 1606.66 1764.77 1606.66 1768.48 1592.37"/><line class="c" x1="1755.13" y1="1568.88" x2="1764.77" y2="1606.66"/><line class="c" x1="1832.29" y1="1606.66" x2="1840.09" y2="1626.83"/><polygon class="c" points="924.84 931.23 963.05 896.5 963.05 779.87 924.84 819.56 924.84 931.23"/><polyline class="c" points="963.05 779.87 910.78 773.92 639.92 773.92 619.03 785.67 616.18 811.08 763.92 809.16 764.7 818.1 924.84 819.56"/><polygon class="c" points="636.65 681.89 979.31 676.02 969.52 527.21 932.76 527.21 934.27 629.03 685.6 629.03 684.44 527.21 647.83 527.21 636.65 681.89"/><polyline class="c" points="979.31 676.02 976.29 819.56 963.05 819.56"/><line class="c" x1="636.65" y1="681.89" x2="639.92" y2="773.92"/><polygon class="c" points="684.44 527.21 932.76 527.21 920.88 343.15 891.21 343.15 891.21 448.89 720.85 448.89 718.08 343.15 691.48 343.15 684.44 527.21"/><polyline class="c" points="718.08 343.15 715.11 48.66 891.21 48.66 891.21 343.15"/><polyline class="c" points="978 737.95 986.43 737.95 987.54 765.11 978 765.11"/><polyline class="c" points="987.54 765.11 987.54 905.63 957.86 905.63 957.86 931.23 924.84 931.23"/><line class="c" x1="987.14" y1="905.11" x2="982.77" y2="964.41"/><line class="c" x1="957.86" y1="931.23" x2="956.19" y2="962.86"/><polygon class="c" points="1159.44 748.47 1179.03 873.78 1175.11 969.72 1153.57 832.66 1159.44 748.47"/><polyline class="c" points="1179.03 873.78 1201.08 873.78 1193.25 969.72 1175.11 969.72"/><polygon class="c" points="1169.23 533.08 1180.98 601.61 1170.11 816.71 1159.44 748.47 1169.23 533.08"/><polyline class="c" points="1180.98 601.61 1250.95 601.61 1241.68 719.1 1225.04 724.22 1223.49 760.21"/><line class="c" x1="1170.11" y1="816.7" x2="1205.74" y2="816.7"/><polyline class="c" points="1169.23 533.08 1188.62 533.08 1202.52 595.74 1250.95 595.74 1250.95 601.61"/><polyline class="c" points="1188.62 533.08 1194.69 458.68 1208.39 523.29 1202.52 595.74"/><polyline class="c" points="1208.39 523.29 1256.88 523.29 1250.95 595.74"/><polyline class="c" points="1195.26 461.35 1215.96 461.35 1227.98 515.46 1253.91 515.46 1256.88 523.29"/><polygon class="c" points="1220.14 382.31 1215.96 461.35 1227.54 513.5 1232.64 437.81 1220.14 382.31"/><polyline class="c" points="1232.64 437.81 1264.3 437.81 1253.91 515.46"/><polyline class="c" points="1220.14 382.31 1250.95 382.31 1264.3 437.81"/><polygon class="c" points="1271.05 474.34 1475.89 474.34 1466.99 559.52 1269.09 560.5 1271.05 474.34"/><polygon class="c" points="1265.79 560.5 1473.54 560.5 1466.86 619.24 1264.3 620.71 1265.79 560.5"/><polyline class="c" points="1262.67 449.98 1271.05 474.34 1269.09 468.65 1299.55 46.04 1430.88 48.66 1392.79 474.34"/><polyline class="c" points="1401.26 379.65 1481.83 379.65 1470.45 474.34"/><polyline class="c" points="1481.83 379.65 1478.6 370.57 1517.76 370.57 1511.89 347.07 1404.18 347.07"/><polyline class="c" points="1517.76 370.57 1509.93 448.89 1473.51 448.89"/><polyline class="c" points="1512.23 425.86 1526.6 425.86 1532.04 448.89 1508.79 448.89"/><polyline class="c" points="1532.04 448.89 1521.68 535.04 1469.55 535.04"/><polyline class="c" points="1525.42 503.88 1535 503.88 1544.65 535.04 1521.68 535.04"/><polyline class="c" points="1446.21 347.07 1466.86 96.44 1426.6 96.44"/><polyline class="c" points="1429.9 59.64 1491.72 59.64 1508.79 99.22 1466.63 99.22"/><polyline class="c" points="1508.79 99.22 1500.79 178.36 1460.11 178.36"/><polyline class="c" points="1458.03 203.58 1500.79 203.58 1486.78 347.07"/><line class="c" x1="1495.64" y1="178.36" x2="1493.7" y2="203.58"/><polyline class="c" points="1468.19 607.49 1506.42 734.76 1579.28 734.76 1570.31 705.17 1617.37 705.17 1572.59 582.03 1548.11 582.03 1554.54 607.49 1535.39 607.49 1468.19 607.49 1535.39 607.49 1544.65 535.04"/><line class="c" x1="1548.11" y1="582.03" x2="1545.64" y2="607.49"/><polyline class="c" points="1472.73 697.56 1312.17 699.51 1322.05 734.76 1506.42 734.76 1487.02 697.56 1472.73 697.56 1460.98 662.31 1466.86 619.24"/><polyline class="c" points="1322.05 734.76 1320.51 746.48 1367.32 746.48 1369.54 734.76"/><polyline class="c" points="1320.51 746.48 1329.79 783.58 1374.24 783.58 1367.32 746.48"/><polyline class="c" points="1329.79 783.58 1329.79 803.29 1327.84 850.28 1350 922.73"/><line class="c" x1="1373.37" y1="803.29" x2="1374.24" y2="783.58"/><line class="c" x1="1312.17" y1="699.51" x2="1309.93" y2="734.76"/><polyline class="c" points="1579.28 734.76 1572.59 787.63 1609.79 863.99"/><line class="c" x1="1572.59" y1="787.63" x2="1373.81" y2="788.77"/><line class="c" x1="1617.36" y1="705.17" x2="1601.6" y2="847.18"/><polyline class="c" points="1616.44 890.59 1636.97 890.59 1643.08 920.77 1617.37 920.77"/><polyline class="c" points="1643.08 920.77 1617.37 1117.84 1591.33 1117.84"/><polyline class="c" points="1638.42 956.5 1662.38 956.5 1643.08 1114.62 1617.79 1114.62"/><polyline class="c" points="1643.84 1108.35 1668.07 1108.35 1697.9 1210.56 1651.77 1210.56"/><polyline class="c" points="1650.52 1053.66 1693.3 1053.66 1705.73 1091.12 1645.94 1091.12"/><line class="c" x1="1705.73" y1="1091.12" x2="1690.71" y2="1185.91"/><line class="c" x1="1697.9" y1="1210.56" x2="1692.03" y2="1261.47"/><polygon class="c" points="732.6 0.5 871.42 0.5 891.21 48.66 715.11 48.66 732.6 0.5"/><polyline class="c" points="1430.88 48.66 1413.99 16.16 1286.93 16.16 1299.55 46.04"/><line class="c" x1="1286.93" y1="16.16" x2="1256.88" y2="406.98"/></g></svg>